<svg width="23" height="23" viewBox="0 0 23 23" fill="none" xmlns="http://www.w3.org/2000/svg">
<circle cx="11.3257" cy="11.1607" r="10.9575" fill="#29BAB3"/>
<path d="M14.141 12.2486C13.8343 12.1826 13.5917 12.325 13.3769 12.4494C13.1568 12.5775 12.7385 12.9168 12.4988 12.83C11.2711 12.3245 10.1165 11.25 9.61666 10.0174C9.52857 9.77253 9.86634 9.35155 9.99353 9.12896C10.117 8.91348 10.2564 8.66858 10.1928 8.35961C10.1353 8.08196 9.39196 7.13606 9.12909 6.8774C8.95573 6.70654 8.77813 6.61256 8.59583 6.59737C7.9104 6.56795 7.14488 7.48253 7.01063 7.70132C6.67427 8.16787 6.67616 8.78866 7.01628 9.5414C7.83597 11.5633 10.9362 14.6145 12.9656 15.465C13.3401 15.6402 13.6826 15.7279 13.9902 15.7279C14.2912 15.7279 14.5593 15.6439 14.7897 15.4774C14.9635 15.3772 15.9155 14.5737 15.8906 13.8699C15.8755 13.6904 15.7818 13.5111 15.6131 13.3373C15.3563 13.072 14.4165 12.3065 14.141 12.2486Z" fill="white"/>
</svg>
