<svg width="24" height="24" viewBox="0 0 24 24" fill="none" xmlns="http://www.w3.org/2000/svg">
<circle cx="12" cy="12" r="10" fill="#A2A3A3"/>
<g clip-path="url(#clip0_6456_19230)">
<path d="M14.5695 12.9918C14.2896 12.9316 14.0682 13.0615 13.8722 13.175C13.6714 13.292 13.2896 13.6017 13.0708 13.5224C11.9504 13.0611 10.8967 12.0805 10.4406 10.9556C10.3602 10.7321 10.6684 10.3479 10.7845 10.1448C10.8972 9.94815 11.0244 9.72465 10.9664 9.44268C10.9139 9.18929 10.2355 8.32605 9.99561 8.08999C9.8374 7.93406 9.67532 7.8483 9.50895 7.83443C8.88341 7.80758 8.1848 8.64224 8.06227 8.84191C7.75531 9.26769 7.75703 9.83423 8.06743 10.5212C8.81549 12.3664 11.6448 15.151 13.4969 15.9272C13.8386 16.087 14.1512 16.1671 14.4319 16.1671C14.7066 16.1671 14.9513 16.0905 15.1615 15.9385C15.3201 15.847 16.189 15.1137 16.1662 14.4714C16.1525 14.3077 16.0669 14.144 15.913 13.9854C15.6787 13.7433 14.821 13.0447 14.5695 12.9918Z" fill="white"/>
</g>
<defs>
<clipPath id="clip0_6456_19230">
<rect width="10" height="10" fill="white" transform="translate(7 7)"/>
</clipPath>
</defs>
</svg>
