<svg width="30" height="30" viewBox="0 0 30 30" fill="none" xmlns="http://www.w3.org/2000/svg">
<circle cx="15" cy="15" r="15" fill="url(#paint0_linear_6456_19254)"/>
<path d="M18.8545 16.488C18.4347 16.3976 18.1026 16.5926 17.8085 16.7628C17.5073 16.9382 16.9347 17.4028 16.6065 17.2839C14.9259 16.592 13.3453 15.121 12.6611 13.4337C12.5405 13.0985 13.0029 12.5222 13.177 12.2175C13.346 11.9225 13.5369 11.5872 13.4498 11.1643C13.3711 10.7842 12.3535 9.48935 11.9937 9.13526C11.7563 8.90136 11.5132 8.77272 11.2637 8.75193C10.3254 8.71165 9.27744 9.96363 9.09365 10.2631C8.63321 10.9018 8.63579 11.7516 9.10139 12.7821C10.2235 15.5498 14.4674 19.7268 17.2455 20.891C17.7582 21.1308 18.227 21.251 18.6481 21.251C19.0602 21.251 19.4271 21.136 19.7425 20.908C19.9805 20.7708 21.2838 19.6709 21.2496 18.7074C21.229 18.4618 21.1006 18.2162 20.8698 17.9784C20.5183 17.6152 19.2318 16.5673 18.8545 16.488Z" fill="white"/>
<defs>
<linearGradient id="paint0_linear_6456_19254" x1="0" y1="0" x2="30" y2="30" gradientUnits="userSpaceOnUse">
<stop stop-color="#23A6CA"/>
<stop offset="1" stop-color="#1E5057"/>
</linearGradient>
</defs>
</svg>
