<svg width="16" height="16" viewBox="0 0 16 16" fill="none" xmlns="http://www.w3.org/2000/svg">
<circle cx="7.55399" cy="7.61924" r="7.11729" fill="#29BAB3"/>
<g clip-path="url(#clip0_9793_30404)">
<path d="M9.3829 8.32343C9.1837 8.28058 9.02611 8.37307 8.88658 8.45386C8.74368 8.53707 8.47197 8.7575 8.31622 8.70109C7.51882 8.37278 6.76886 7.67484 6.44421 6.87424C6.38699 6.71517 6.60638 6.44172 6.689 6.29714C6.76917 6.15718 6.85974 5.99811 6.81843 5.79743C6.7811 5.61708 6.29826 5.00269 6.12752 4.83468C6.01491 4.7237 5.89956 4.66266 5.78114 4.65279C5.33593 4.63368 4.83871 5.22773 4.7515 5.36985C4.53303 5.67288 4.53426 6.07611 4.75518 6.56503C5.28759 7.8783 7.30127 9.8602 8.61945 10.4126C8.86271 10.5264 9.08516 10.5834 9.28497 10.5834C9.48049 10.5834 9.6546 10.5288 9.80424 10.4207C9.91714 10.3556 10.5355 9.83369 10.5193 9.37652C10.5095 9.25998 10.4487 9.14346 10.3391 9.03062C10.1723 8.8583 9.5619 8.36106 9.3829 8.32343Z" fill="white"/>
</g>
<defs>
<clipPath id="clip0_9793_30404">
<rect width="7.11729" height="7.11729" fill="white" transform="translate(3.99536 4.05859)"/>
</clipPath>
</defs>
</svg>
