<svg width="47" height="47" viewBox="0 0 47 47" fill="none" xmlns="http://www.w3.org/2000/svg">
<rect x="0.424149" y="0.636414" width="46.0606" height="46.0606" rx="23.0303" fill="white" fill-opacity="0.07"/>
<rect x="0.424149" y="0.636414" width="46.0606" height="46.0606" rx="23.0303" fill="#FF574C"/>
<g clip-path="url(#clip0_1_4248)">
<path d="M13.6204 26.5043L11.0291 23.9129C10.6444 23.5282 10.6226 22.9115 10.9792 22.5007C11.2771 22.1575 11.5273 21.8848 11.7298 21.6823C18.2054 15.2067 28.7044 15.2067 35.18 21.6823C35.3825 21.8848 35.6326 22.1576 35.9305 22.5008C36.2871 22.9116 36.2653 23.5282 35.8807 23.9129L33.2892 26.5043C33.1011 26.6924 32.8011 26.7075 32.5951 26.5392C32.4101 26.3882 32.2595 26.2691 32.1431 26.1819C30.9596 25.2948 29.6715 24.6122 28.3269 24.1341C28.111 24.0573 27.9813 23.8369 28.0189 23.6109L28.4708 20.8995C25.2586 19.6131 21.6511 19.6131 18.4389 20.8994L18.8901 23.6061C18.9282 23.8348 18.7968 24.0579 18.5785 24.1356C17.2343 24.6141 15.9466 25.2969 14.7636 26.1842C14.648 26.2708 14.4983 26.3892 14.3146 26.5392C14.1086 26.7075 13.8085 26.6924 13.6204 26.5043Z" fill="white"/>
</g>
<defs>
<clipPath id="clip0_1_4248">
<rect width="25.9091" height="24.8727" fill="white" transform="translate(10.5 10.7116)"/>
</clipPath>
</defs>
</svg>
