<svg width="16" height="18" viewBox="0 0 16 18" fill="none" xmlns="http://www.w3.org/2000/svg">
<path d="M15.4282 14.1427H12.8569V11.5713H11.5712V14.1427H8.99976V15.4284H11.5712V17.9998H12.8569V15.4284H15.4282V14.1427Z" fill="#707D8B"/>
<path d="M6.42849 16.7143H1.2857V1.28592H6.42849V5.14301C6.42951 5.48369 6.56529 5.81012 6.80619 6.05102C7.04708 6.29191 7.37352 6.42769 7.71419 6.42871H11.5713V9.00011H12.857V5.14301C12.8593 5.05853 12.8432 4.97455 12.8099 4.89687C12.7766 4.81919 12.7269 4.74964 12.6641 4.69302L8.16419 0.193073C8.10759 0.130296 8.03805 0.0805429 7.96036 0.0472476C7.88267 0.0139523 7.79868 -0.00209301 7.71419 0.000218595H1.2857C0.945023 0.00123605 0.618591 0.13702 0.377696 0.377915C0.136801 0.61881 0.00101746 0.945242 0 1.28592V16.7143C0.00101746 17.055 0.136801 17.3814 0.377696 17.6223C0.618591 17.8632 0.945023 17.999 1.2857 18H6.42849V16.7143ZM7.71419 1.54306L11.3141 5.14301H7.71419V1.54306Z" fill="#707D8B"/>
</svg>
