<svg width="155" height="59" viewBox="0 0 155 59" fill="none" xmlns="http://www.w3.org/2000/svg">
<path d="M0 0H137.638C146.796 0 154.221 7.42441 154.221 16.5829V42.2864C154.221 51.4448 146.796 58.8693 137.638 58.8693H16.5829C7.42442 58.8693 0 51.4448 0 42.2864V0Z" fill="#6387AD"/>
<path d="M56.05 48.4011C55.254 48.4011 54.6438 48.0926 54.2192 47.4757C53.7947 46.8589 53.5824 45.9667 53.5824 44.7993C53.5824 43.6252 53.7947 42.733 54.2192 42.1228C54.6438 41.5125 55.254 41.2074 56.05 41.2074C56.8526 41.2074 57.4628 41.5125 57.8807 42.1228C58.3053 42.733 58.5175 43.6219 58.5175 44.7893C58.5175 45.9634 58.3053 46.8589 57.8807 47.4757C57.4562 48.0926 56.846 48.4011 56.05 48.4011ZM56.05 47.6847C56.6072 47.6847 57.0217 47.4492 57.2937 46.9783C57.5657 46.5073 57.7016 45.7777 57.7016 44.7893C57.7016 43.7943 57.5657 43.068 57.2937 42.6103C57.0217 42.146 56.6072 41.9138 56.05 41.9138C55.4994 41.9138 55.0849 42.146 54.8063 42.6103C54.5343 43.0746 54.3983 43.801 54.3983 44.7893C54.3983 45.7777 54.5343 46.5073 54.8063 46.9783C55.0849 47.4492 55.4994 47.6847 56.05 47.6847ZM62.0159 48.4011C61.22 48.4011 60.6097 48.0926 60.1852 47.4757C59.7607 46.8589 59.5484 45.9667 59.5484 44.7993C59.5484 43.6252 59.7607 42.733 60.1852 42.1228C60.6097 41.5125 61.22 41.2074 62.0159 41.2074C62.8185 41.2074 63.4288 41.5125 63.8467 42.1228C64.2712 42.733 64.4835 43.6219 64.4835 44.7893C64.4835 45.9634 64.2712 46.8589 63.8467 47.4757C63.4222 48.0926 62.8119 48.4011 62.0159 48.4011ZM62.0159 47.6847C62.5731 47.6847 62.9877 47.4492 63.2597 46.9783C63.5316 46.5073 63.6676 45.7777 63.6676 44.7893C63.6676 43.7943 63.5316 43.068 63.2597 42.6103C62.9877 42.146 62.5731 41.9138 62.0159 41.9138C61.4654 41.9138 61.0508 42.146 60.7722 42.6103C60.5003 43.0746 60.3643 43.801 60.3643 44.7893C60.3643 45.7777 60.5003 46.5073 60.7722 46.9783C61.0508 47.4492 61.4654 47.6847 62.0159 47.6847ZM65.6238 44.3316V43.3168H66.6387V44.3316H65.6238ZM65.6238 48.3115V47.2967H66.6387V48.3115H65.6238ZM68.5245 48.3115V47.6051H70.1762V42.0034H70.614L68.6837 43.2073V42.3815L70.405 41.297H71.002V47.6051H72.5542V48.3115H68.5245ZM74.0826 48.3115V47.6946L76.57 45.0978C76.895 44.7595 77.1371 44.4378 77.2963 44.1326C77.4621 43.8209 77.5451 43.4992 77.5451 43.1675C77.5451 42.7629 77.419 42.4578 77.167 42.2521C76.9149 42.0399 76.5501 41.9337 76.0725 41.9337C75.701 41.9337 75.3561 42.0001 75.0377 42.1327C74.726 42.2588 74.4242 42.4611 74.1323 42.7397L73.8338 42.0929C74.0991 41.8276 74.4374 41.6154 74.8487 41.4562C75.2599 41.2903 75.6944 41.2074 76.1521 41.2074C76.8618 41.2074 77.4091 41.3732 77.7938 41.7049C78.1785 42.0299 78.3709 42.4942 78.3709 43.0979C78.3709 43.5423 78.2614 43.9668 78.0425 44.3714C77.8303 44.7694 77.5185 45.1807 77.1073 45.6052L74.9084 47.8339V47.6051H78.6694V48.3115H74.0826Z" fill="white"/>
<path d="M42.7844 26.5325C42.7844 35.5078 35.5085 42.7837 26.5331 42.7837C17.5578 42.7837 10.2819 35.5078 10.2819 26.5325C10.2819 17.5572 17.5578 10.2812 26.5331 10.2812C35.5085 10.2812 42.7844 17.5572 42.7844 26.5325Z" fill="#4A6582"/>
<path d="M33.8828 25.7626C34.513 26.1048 34.513 26.9603 33.8828 27.3025L23.3076 33.0453C22.6774 33.3875 21.8897 32.9597 21.8897 32.2753L21.8897 20.7898C21.8897 20.1054 22.6774 19.6776 23.3076 20.0199L33.8828 25.7626Z" fill="white"/>
<rect x="53.0659" y="26.5327" width="1.65829" height="3.31658" rx="0.829144" fill="white"/>
<rect x="119.397" y="22.3872" width="1.65829" height="7.4623" rx="0.829144" fill="white"/>
<rect width="1.65829" height="3.31658" rx="0.829144" transform="matrix(-1 0 0 1 117.739 26.5327)" fill="white"/>
<rect width="1.65829" height="3.31658" rx="0.829144" transform="matrix(-1 0 0 1 144.272 26.5327)" fill="white"/>
<rect x="56.3826" y="24.0454" width="1.65829" height="5.80401" rx="0.829144" fill="white"/>
<rect x="122.714" y="24.0454" width="1.65829" height="5.80401" rx="0.829144" fill="white"/>
<rect width="1.65829" height="5.80401" rx="0.829144" transform="matrix(-1 0 0 1 114.423 24.0454)" fill="white"/>
<rect width="1.65829" height="5.80401" rx="0.829144" transform="matrix(-1 0 0 1 140.955 24.0454)" fill="white"/>
<rect x="72.9653" y="24.0454" width="1.65829" height="5.80401" rx="0.829144" fill="white"/>
<rect x="59.6989" y="16.583" width="1.65829" height="13.2663" rx="0.829144" fill="white"/>
<rect width="1.65829" height="9.12059" rx="0.829144" transform="matrix(-1 0 0 1 111.106 20.7285)" fill="white"/>
<rect width="1.65829" height="9.12059" rx="0.829144" transform="matrix(-1 0 0 1 137.639 20.7285)" fill="white"/>
<rect x="79.5988" y="20.7285" width="1.65829" height="9.12059" rx="0.829144" fill="white"/>
<rect x="63.0156" y="19.0703" width="1.65829" height="10.7789" rx="0.829144" fill="white"/>
<rect width="1.65829" height="9.94973" rx="0.829144" transform="matrix(-1 0 0 1 107.79 19.8994)" fill="white"/>
<rect width="1.65829" height="9.94973" rx="0.829144" transform="matrix(-1 0 0 1 134.322 19.8994)" fill="white"/>
<rect x="66.3323" y="13.2666" width="1.65829" height="16.5829" rx="0.829144" fill="white"/>
<rect width="1.65829" height="16.5829" rx="0.829144" transform="matrix(-1 0 0 1 104.473 13.2666)" fill="white"/>
<rect width="1.65829" height="9.94973" rx="0.829144" transform="matrix(-1 0 0 1 131.006 19.8994)" fill="white"/>
<rect x="76.282" y="13.2666" width="1.65829" height="16.5829" rx="0.829144" fill="white"/>
<rect x="82.9149" y="13.2666" width="1.65829" height="16.5829" rx="0.829144" fill="white"/>
<rect x="86.2317" y="10.7788" width="1.65829" height="19.0703" rx="0.829144" fill="white"/>
<rect x="89.5484" y="13.2666" width="1.65829" height="16.5829" rx="0.829144" fill="white"/>
<rect x="92.8646" y="9.94971" width="1.65829" height="19.8995" rx="0.829144" fill="white"/>
<rect x="96.1813" y="16.583" width="1.65829" height="13.2663" rx="0.829144" fill="white"/>
<rect x="69.649" y="15.7539" width="1.65829" height="14.0955" rx="0.829144" fill="white"/>
<rect width="1.65829" height="11.608" rx="0.829144" transform="matrix(-1 0 0 1 101.156 18.2412)" fill="white"/>
<rect width="1.65829" height="11.608" rx="0.829144" transform="matrix(-1 0 0 1 127.689 18.2412)" fill="white"/>
</svg>
