<svg width="16" height="16" viewBox="0 0 16 16" fill="none" xmlns="http://www.w3.org/2000/svg">
<mask id="path-1-inside-1_8868_54178" fill="white">
<path d="M0.292715 14.2918C0.10523 14.4794 -6.24595e-05 14.7337 4.88808e-08 14.9989C6.25572e-05 15.2641 0.105475 15.5185 0.293049 15.706C0.480622 15.8934 0.734991 15.9987 1.0002 15.9987C1.2654 15.9986 1.51972 15.8932 1.70721 15.7056L7.88111 9.53238C7.89659 9.51686 7.91498 9.50455 7.93523 9.49615C7.95547 9.48775 7.97718 9.48342 7.9991 9.48342C8.02102 9.48342 8.04272 9.48775 8.06297 9.49615C8.08321 9.50455 8.1016 9.51686 8.11708 9.53238L14.291 15.707C14.3838 15.7998 14.494 15.8735 14.6153 15.9238C14.7367 15.9741 14.8667 16 14.998 16C15.1293 16 15.2594 15.9742 15.3807 15.924C15.502 15.8737 15.6123 15.8001 15.7051 15.7073C15.798 15.6145 15.8717 15.5042 15.922 15.3829C15.9723 15.2616 15.9982 15.1316 15.9982 15.0003C15.9982 14.869 15.9724 14.7389 15.9222 14.6176C15.8719 14.4963 15.7983 14.386 15.7055 14.2931L9.53224 8.11722C9.51672 8.10174 9.50441 8.08335 9.49601 8.06311C9.48761 8.04286 9.48328 8.02116 9.48328 7.99924C9.48328 7.97732 9.48761 7.95561 9.49601 7.93537C9.50441 7.91512 9.51672 7.89673 9.53224 7.88125L15.7068 1.70735C15.8943 1.5196 15.9995 1.26506 15.9993 0.999726C15.9991 0.734395 15.8936 0.480005 15.7058 0.29252C15.5181 0.105035 15.2635 -0.00018726 14.9982 2.50182e-07C14.7329 0.00018776 14.4785 0.10577 14.291 0.29352L8.11708 6.46609C8.1016 6.48161 8.08321 6.49392 8.06297 6.50233C8.04272 6.51073 8.02102 6.51505 7.9991 6.51505C7.97718 6.51505 7.95547 6.51073 7.93523 6.50233C7.91498 6.49392 7.89659 6.48161 7.88111 6.46609L1.70721 0.29352C1.61437 0.200643 1.50416 0.126961 1.38285 0.0766793C1.26154 0.0263979 1.13151 0.000502527 1.0002 0.000471578C0.734991 0.000409074 0.480622 0.105702 0.293049 0.293187C0.105475 0.480672 6.25322e-05 0.734991 2.78122e-08 1.0002C-6.24766e-05 1.2654 0.10523 1.51977 0.292715 1.70735L6.46595 7.88125C6.48147 7.89673 6.49379 7.91512 6.50219 7.93537C6.51059 7.95561 6.51491 7.97732 6.51491 7.99924C6.51491 8.02116 6.51059 8.04286 6.50219 8.06311C6.49379 8.08335 6.48147 8.10174 6.46595 8.11722L0.292715 14.2918Z"/>
</mask>
<path d="M0.292715 14.2918C0.10523 14.4794 -6.24595e-05 14.7337 4.88808e-08 14.9989C6.25572e-05 15.2641 0.105475 15.5185 0.293049 15.706C0.480622 15.8934 0.734991 15.9987 1.0002 15.9987C1.2654 15.9986 1.51972 15.8932 1.70721 15.7056L7.88111 9.53238C7.89659 9.51686 7.91498 9.50455 7.93523 9.49615C7.95547 9.48775 7.97718 9.48342 7.9991 9.48342C8.02102 9.48342 8.04272 9.48775 8.06297 9.49615C8.08321 9.50455 8.1016 9.51686 8.11708 9.53238L14.291 15.707C14.3838 15.7998 14.494 15.8735 14.6153 15.9238C14.7367 15.9741 14.8667 16 14.998 16C15.1293 16 15.2594 15.9742 15.3807 15.924C15.502 15.8737 15.6123 15.8001 15.7051 15.7073C15.798 15.6145 15.8717 15.5042 15.922 15.3829C15.9723 15.2616 15.9982 15.1316 15.9982 15.0003C15.9982 14.869 15.9724 14.7389 15.9222 14.6176C15.8719 14.4963 15.7983 14.386 15.7055 14.2931L9.53224 8.11722C9.51672 8.10174 9.50441 8.08335 9.49601 8.06311C9.48761 8.04286 9.48328 8.02116 9.48328 7.99924C9.48328 7.97732 9.48761 7.95561 9.49601 7.93537C9.50441 7.91512 9.51672 7.89673 9.53224 7.88125L15.7068 1.70735C15.8943 1.5196 15.9995 1.26506 15.9993 0.999726C15.9991 0.734395 15.8936 0.480005 15.7058 0.29252C15.5181 0.105035 15.2635 -0.00018726 14.9982 2.50182e-07C14.7329 0.00018776 14.4785 0.10577 14.291 0.29352L8.11708 6.46609C8.1016 6.48161 8.08321 6.49392 8.06297 6.50233C8.04272 6.51073 8.02102 6.51505 7.9991 6.51505C7.97718 6.51505 7.95547 6.51073 7.93523 6.50233C7.91498 6.49392 7.89659 6.48161 7.88111 6.46609L1.70721 0.29352C1.61437 0.200643 1.50416 0.126961 1.38285 0.0766793C1.26154 0.0263979 1.13151 0.000502527 1.0002 0.000471578C0.734991 0.000409074 0.480622 0.105702 0.293049 0.293187C0.105475 0.480672 6.25322e-05 0.734991 2.78122e-08 1.0002C-6.24766e-05 1.2654 0.10523 1.51977 0.292715 1.70735L6.46595 7.88125C6.48147 7.89673 6.49379 7.91512 6.50219 7.93537C6.51059 7.95561 6.51491 7.97732 6.51491 7.99924C6.51491 8.02116 6.51059 8.04286 6.50219 8.06311C6.49379 8.08335 6.48147 8.10174 6.46595 8.11722L0.292715 14.2918Z" fill="#262626"/>
<path d="M0.292715 14.2918L-0.414468 13.5848L-0.414558 13.5849L0.292715 14.2918ZM1.70721 15.7056L1.00014 14.9985L0.999934 14.9987L1.70721 15.7056ZM7.88111 9.53238L8.58818 10.2395L8.58911 10.2386L7.88111 9.53238ZM8.11708 9.53238L7.40908 10.2386L7.40994 10.2394L8.11708 9.53238ZM14.291 15.707L14.9983 15L14.9981 14.9999L14.291 15.707ZM14.998 16L14.9978 17L14.998 16ZM15.7055 14.2931L16.4128 13.5862L16.4127 13.5862L15.7055 14.2931ZM9.53224 8.11722L10.2395 7.41027L10.2385 7.40922L9.53224 8.11722ZM9.53224 7.88125L10.2385 8.58925L10.2393 8.5884L9.53224 7.88125ZM15.7068 1.70735L16.4139 2.41449L16.4144 2.41395L15.7068 1.70735ZM14.291 0.29352L14.998 1.0007L14.9986 1.00013L14.291 0.29352ZM8.11708 6.46609L7.41005 5.75891L7.40908 5.75988L8.11708 6.46609ZM7.88111 6.46609L8.58911 5.75988L8.58814 5.75891L7.88111 6.46609ZM1.70721 0.29352L0.999934 1.00046L1.00018 1.0007L1.70721 0.29352ZM1.0002 0.000471578L1.00043 -0.999528L1.0002 0.000471578ZM0.292715 1.70735L-0.414558 2.41429L-0.41443 2.41441L0.292715 1.70735ZM6.46595 7.88125L5.75881 8.58832L5.75974 8.58925L6.46595 7.88125ZM6.46595 8.11722L5.75974 7.40922L5.75877 7.41019L6.46595 8.11722ZM-0.414558 13.5849C-0.789535 13.96 -1.00012 14.4688 -1 14.9992L1 14.9987L0.999989 14.9987L-0.414558 13.5849ZM-1 14.9992C-0.999875 15.5296 -0.789045 16.0382 -0.413891 16.4132L0.999989 14.9987L1 14.9987L-1 14.9992ZM-0.413891 16.4132C-0.0387375 16.7882 0.47001 16.9988 1.00043 16.9987L0.999961 14.9987L0.999989 14.9987L-0.413891 16.4132ZM1.00043 16.9987C1.53085 16.9985 2.0395 16.7877 2.41448 16.4126L0.999934 14.9987L0.999961 14.9987L1.00043 16.9987ZM2.41428 16.4128L8.58818 10.2395L7.17404 8.82524L1.00014 14.9985L2.41428 16.4128ZM8.58911 10.2386C8.5117 10.3162 8.41974 10.3778 8.31849 10.4198L7.55196 8.57251C7.41022 8.63132 7.28148 8.71752 7.17311 8.82617L8.58911 10.2386ZM8.31849 10.4198C8.21725 10.4618 8.10871 10.4834 7.9991 10.4834V8.48342C7.84564 8.48342 7.6937 8.5137 7.55196 8.57251L8.31849 10.4198ZM7.9991 10.4834C7.88948 10.4834 7.78094 10.4618 7.6797 10.4198L8.44623 8.57251C8.3045 8.5137 8.15255 8.48342 7.9991 8.48342V10.4834ZM7.6797 10.4198C7.57845 10.3778 7.48649 10.3162 7.40908 10.2386L8.82508 8.82617C8.71671 8.71752 8.58797 8.63132 8.44623 8.57251L7.6797 10.4198ZM7.40994 10.2394L13.5838 16.414L14.9981 14.9999L8.82423 8.82531L7.40994 10.2394ZM13.5837 16.4139C13.7694 16.5996 13.9898 16.747 14.2324 16.8476L14.9983 15L14.9983 15L13.5837 16.4139ZM14.2324 16.8476C14.4751 16.9481 14.7351 16.9999 14.9978 17L14.9982 15L14.9983 15L14.2324 16.8476ZM14.9978 17C15.2604 17.0001 15.5205 16.9484 15.7632 16.8479L14.9982 15L14.9982 15L14.9978 17ZM15.7632 16.8479C16.0058 16.7475 16.2263 16.6002 16.4121 16.4146L14.9982 15L14.9982 15L15.7632 16.8479ZM16.4121 16.4146C16.5978 16.2289 16.7452 16.0085 16.8458 15.7658L14.9982 15L14.9982 15L16.4121 16.4146ZM16.8458 15.7658C16.9463 15.5232 16.9981 15.2632 16.9982 15.0005L14.9982 15L14.9982 15L16.8458 15.7658ZM16.9982 15.0005C16.9983 14.7379 16.9466 14.4778 16.8461 14.2351L14.9982 15.0001L14.9982 15L16.9982 15.0005ZM16.8461 14.2351C16.7457 13.9925 16.5984 13.7719 16.4128 13.5862L14.9982 15.0001L14.9982 15.0001L16.8461 14.2351ZM16.4127 13.5862L10.2395 7.41027L8.82498 8.82418L14.9982 15.0001L16.4127 13.5862ZM10.2385 7.40922C10.3161 7.48663 10.3776 7.57859 10.4196 7.67984L8.57237 8.44637C8.63119 8.58811 8.71739 8.71685 8.82603 8.82522L10.2385 7.40922ZM10.4196 7.67984C10.4617 7.78108 10.4833 7.88962 10.4833 7.99924H8.48328C8.48328 8.15269 8.51356 8.30464 8.57237 8.44637L10.4196 7.67984ZM10.4833 7.99924C10.4833 8.10885 10.4617 8.21739 10.4196 8.31863L8.57237 7.5521C8.51356 7.69383 8.48328 7.84578 8.48328 7.99924H10.4833ZM10.4196 8.31863C10.3776 8.41988 10.3161 8.51184 10.2385 8.58925L8.82603 7.17325C8.71739 7.28162 8.63119 7.41036 8.57237 7.5521L10.4196 8.31863ZM10.2393 8.5884L16.4139 2.41449L14.9997 1.0002L8.82517 7.17411L10.2393 8.5884ZM16.4144 2.41395C16.7893 2.03853 16.9997 1.52957 16.9993 0.999019L14.9993 1.00043L14.9992 1.00074L16.4144 2.41395ZM16.9993 0.999019C16.999 0.468471 16.7878 -0.0401976 16.4124 -0.415086L14.9992 1.00013L14.9993 1.00043L16.9993 0.999019ZM16.4124 -0.415086C16.037 -0.789975 15.528 -1.00037 14.9975 -1L14.9989 1L14.9992 1.00013L16.4124 -0.415086ZM14.9975 -1C14.4669 -0.999625 13.9583 -0.788506 13.5834 -0.413087L14.9986 1.00013L14.9989 1L14.9975 -1ZM13.584 -0.413663L7.41005 5.75891L8.82411 7.17327L14.998 1.0007L13.584 -0.413663ZM7.40908 5.75988C7.48649 5.68227 7.57845 5.6207 7.6797 5.57869L8.44623 7.42596C8.58797 7.36715 8.71671 7.28095 8.82508 7.1723L7.40908 5.75988ZM7.6797 5.57869C7.78094 5.53668 7.88948 5.51505 7.9991 5.51505V7.51505C8.15255 7.51505 8.3045 7.48478 8.44623 7.42596L7.6797 5.57869ZM7.9991 5.51505C8.10871 5.51505 8.21725 5.53668 8.31849 5.57869L7.55196 7.42596C7.6937 7.48478 7.84564 7.51505 7.9991 7.51505V5.51505ZM8.31849 5.57869C8.41974 5.6207 8.5117 5.68227 8.58911 5.75988L7.17311 7.1723C7.28148 7.28095 7.41022 7.36715 7.55196 7.42596L8.31849 5.57869ZM8.58814 5.75891L2.41424 -0.413663L1.00018 1.0007L7.17408 7.17327L8.58814 5.75891ZM2.41448 -0.41342C2.22881 -0.599177 2.00837 -0.746545 1.76575 -0.84711L0.999947 1.00047L0.999934 1.00046L2.41448 -0.41342ZM1.76575 -0.84711C1.52313 -0.947675 1.26307 -0.999466 1.00043 -0.999528L0.999961 1.00047L0.999947 1.00047L1.76575 -0.84711ZM1.00043 -0.999528C0.47001 -0.999653 -0.0387377 -0.789064 -0.413892 -0.414087L0.999989 1.00046L0.999961 1.00047L1.00043 -0.999528ZM-0.413892 -0.414087C-0.789045 -0.0391095 -0.999875 0.469539 -1 0.999961L1 1.00043L0.999989 1.00046L-0.413892 -0.414087ZM-1 0.999961C-1.00012 1.53038 -0.789535 2.03913 -0.414558 2.41429L0.999989 1.00041L1 1.00043L-1 0.999961ZM-0.41443 2.41441L5.75881 8.58832L7.1731 7.17418L0.99986 1.00028L-0.41443 2.41441ZM5.75974 8.58925C5.68214 8.51184 5.62056 8.41988 5.57855 8.31863L7.42582 7.5521C7.36701 7.41036 7.28081 7.28162 7.17217 7.17325L5.75974 8.58925ZM5.57855 8.31863C5.53654 8.21739 5.51491 8.10885 5.51491 7.99924H7.51491C7.51491 7.84578 7.48464 7.69383 7.42582 7.5521L5.57855 8.31863ZM5.51491 7.99924C5.51491 7.88962 5.53654 7.78108 5.57855 7.67984L7.42582 8.44637C7.48464 8.30464 7.51491 8.15269 7.51491 7.99924H5.51491ZM5.57855 7.67984C5.62056 7.57859 5.68214 7.48663 5.75974 7.40922L7.17217 8.82522C7.28081 8.71685 7.36701 8.58811 7.42582 8.44637L5.57855 7.67984ZM5.75877 7.41019L-0.414468 13.5848L0.999898 14.9988L7.17314 8.82425L5.75877 7.41019Z" fill="#262626" mask="url(#path-1-inside-1_8868_54178)"/>
</svg>
