<svg width="20" height="20" viewBox="0 0 20 20" fill="none" xmlns="http://www.w3.org/2000/svg">
<rect width="7.99967" height="8" transform="translate(6 6)" fill="#F2F6FB"/>
<mask id="path-1-inside-1_9113_2935" fill="white">
<path d="M6.14636 13.1459C6.05262 13.2397 5.99997 13.3669 6 13.4995C6.00003 13.6321 6.05274 13.7592 6.14652 13.853C6.24031 13.9467 6.3675 13.9994 6.5001 13.9993C6.6327 13.9993 6.75986 13.9466 6.8536 13.8528L9.94056 10.7662C9.9483 10.7584 9.95749 10.7523 9.96761 10.7481C9.97774 10.7439 9.98859 10.7417 9.99955 10.7417C10.0105 10.7417 10.0214 10.7439 10.0315 10.7481C10.0416 10.7523 10.0508 10.7584 10.0585 10.7662L13.1455 13.8535C13.1919 13.8999 13.247 13.9368 13.3077 13.9619C13.3683 13.987 13.4333 14 13.499 14C13.5647 14 13.6297 13.9871 13.6903 13.962C13.751 13.9369 13.8061 13.9001 13.8526 13.8536C13.899 13.8072 13.9359 13.7521 13.961 13.6915C13.9861 13.6308 13.9991 13.5658 13.9991 13.5001C13.9991 13.4345 13.9862 13.3695 13.9611 13.3088C13.936 13.2481 13.8992 13.193 13.8527 13.1466L10.7661 10.0586C10.7584 10.0509 10.7522 10.0417 10.748 10.0316C10.7438 10.0214 10.7416 10.0106 10.7416 9.99962C10.7416 9.98866 10.7438 9.97781 10.748 9.96768C10.7522 9.95756 10.7584 9.94837 10.7661 9.94063L13.8534 6.85367C13.9471 6.7598 13.9998 6.63253 13.9997 6.49986C13.9996 6.3672 13.9468 6.24 13.8529 6.14626C13.759 6.05252 13.6318 5.99991 13.4991 6C13.3664 6.00009 13.2392 6.05289 13.1455 6.14676L10.0585 9.23305C10.0508 9.24081 10.0416 9.24696 10.0315 9.25116C10.0214 9.25536 10.0105 9.25753 9.99955 9.25753C9.98859 9.25753 9.97774 9.25536 9.96761 9.25116C9.95749 9.24696 9.9483 9.24081 9.94056 9.23305L6.8536 6.14676C6.80719 6.10032 6.75208 6.06348 6.69142 6.03834C6.63077 6.0132 6.56576 6.00025 6.5001 6.00024C6.3675 6.0002 6.24031 6.05285 6.14652 6.14659C6.05274 6.24034 6.00003 6.3675 6 6.5001C5.99997 6.6327 6.05262 6.75989 6.14636 6.85367L9.23298 9.94063C9.24074 9.94837 9.24689 9.95756 9.25109 9.96768C9.25529 9.97781 9.25746 9.98866 9.25746 9.99962C9.25746 10.0106 9.25529 10.0214 9.25109 10.0316C9.24689 10.0417 9.24074 10.0509 9.23298 10.0586L6.14636 13.1459Z"/>
</mask>
<path d="M6.14636 13.1459C6.05262 13.2397 5.99997 13.3669 6 13.4995C6.00003 13.6321 6.05274 13.7592 6.14652 13.853C6.24031 13.9467 6.3675 13.9994 6.5001 13.9993C6.6327 13.9993 6.75986 13.9466 6.8536 13.8528L9.94056 10.7662C9.9483 10.7584 9.95749 10.7523 9.96761 10.7481C9.97774 10.7439 9.98859 10.7417 9.99955 10.7417C10.0105 10.7417 10.0214 10.7439 10.0315 10.7481C10.0416 10.7523 10.0508 10.7584 10.0585 10.7662L13.1455 13.8535C13.1919 13.8999 13.247 13.9368 13.3077 13.9619C13.3683 13.987 13.4333 14 13.499 14C13.5647 14 13.6297 13.9871 13.6903 13.962C13.751 13.9369 13.8061 13.9001 13.8526 13.8536C13.899 13.8072 13.9359 13.7521 13.961 13.6915C13.9861 13.6308 13.9991 13.5658 13.9991 13.5001C13.9991 13.4345 13.9862 13.3695 13.9611 13.3088C13.936 13.2481 13.8992 13.193 13.8527 13.1466L10.7661 10.0586C10.7584 10.0509 10.7522 10.0417 10.748 10.0316C10.7438 10.0214 10.7416 10.0106 10.7416 9.99962C10.7416 9.98866 10.7438 9.97781 10.748 9.96768C10.7522 9.95756 10.7584 9.94837 10.7661 9.94063L13.8534 6.85367C13.9471 6.7598 13.9998 6.63253 13.9997 6.49986C13.9996 6.3672 13.9468 6.24 13.8529 6.14626C13.759 6.05252 13.6318 5.99991 13.4991 6C13.3664 6.00009 13.2392 6.05289 13.1455 6.14676L10.0585 9.23305C10.0508 9.24081 10.0416 9.24696 10.0315 9.25116C10.0214 9.25536 10.0105 9.25753 9.99955 9.25753C9.98859 9.25753 9.97774 9.25536 9.96761 9.25116C9.95749 9.24696 9.9483 9.24081 9.94056 9.23305L6.8536 6.14676C6.80719 6.10032 6.75208 6.06348 6.69142 6.03834C6.63077 6.0132 6.56576 6.00025 6.5001 6.00024C6.3675 6.0002 6.24031 6.05285 6.14652 6.14659C6.05274 6.24034 6.00003 6.3675 6 6.5001C5.99997 6.6327 6.05262 6.75989 6.14636 6.85367L9.23298 9.94063C9.24074 9.94837 9.24689 9.95756 9.25109 9.96768C9.25529 9.97781 9.25746 9.98866 9.25746 9.99962C9.25746 10.0106 9.25529 10.0214 9.25109 10.0316C9.24689 10.0417 9.24074 10.0509 9.23298 10.0586L6.14636 13.1459Z" fill="#707D8B"/>
<path d="M6.14636 13.1459L5.43917 12.4389L5.43908 12.439L6.14636 13.1459ZM6.8536 13.8528L6.14654 13.1457L6.14633 13.1459L6.8536 13.8528ZM9.94056 10.7662L10.6476 11.4733L10.6486 11.4724L9.94056 10.7662ZM10.0585 10.7662L9.35054 11.4724L9.3514 11.4733L10.0585 10.7662ZM13.1455 13.8535L13.8528 13.1465L13.8526 13.1464L13.1455 13.8535ZM13.499 14L13.4988 15L13.499 14ZM13.8527 13.1466L14.56 12.4396L14.56 12.4396L13.8527 13.1466ZM10.7661 10.0586L11.4734 9.35166L11.4723 9.35061L10.7661 10.0586ZM10.7661 9.94063L11.4723 10.6486L11.4732 10.6478L10.7661 9.94063ZM13.8534 6.85367L14.5605 7.56082L14.561 7.56028L13.8534 6.85367ZM13.1455 6.14676L13.8525 6.85394L13.8531 6.85337L13.1455 6.14676ZM10.0585 9.23305L9.35151 8.52586L9.35054 8.52683L10.0585 9.23305ZM9.94056 9.23305L10.6486 8.52683L10.6476 8.52586L9.94056 9.23305ZM6.8536 6.14676L6.14633 6.8537L6.14657 6.85394L6.8536 6.14676ZM6.5001 6.00024L6.50033 5.00024L6.5001 6.00024ZM6.14636 6.85367L5.43908 7.56061L5.43921 7.56074L6.14636 6.85367ZM9.23298 9.94063L8.52583 10.6477L8.52676 10.6486L9.23298 9.94063ZM9.23298 10.0586L8.52676 9.35061L8.52579 9.35158L9.23298 10.0586ZM5.43908 12.439C5.15785 12.7203 4.99991 13.1019 5 13.4997L7 13.4992C7.00003 13.6318 6.94738 13.759 6.85363 13.8528L5.43908 12.439ZM5 13.4997C5.00009 13.8975 5.15822 14.279 5.43958 14.5602L6.85346 13.1457C6.94726 13.2395 6.99997 13.3666 7 13.4992L5 13.4997ZM5.43958 14.5602C5.72095 14.8415 6.10251 14.9994 6.50033 14.9993L6.49986 12.9993C6.63248 12.9993 6.75967 13.052 6.85346 13.1457L5.43958 14.5602ZM6.50033 14.9993C6.89815 14.9992 7.27964 14.8411 7.56088 14.5597L6.14633 13.1459C6.24008 13.0521 6.36725 12.9994 6.49986 12.9993L6.50033 14.9993ZM7.56067 14.56L10.6476 11.4733L9.23349 10.059L6.14654 13.1457L7.56067 14.56ZM10.6486 11.4724C10.5634 11.5578 10.4623 11.6255 10.3509 11.6717L9.58435 9.82444C9.45273 9.87905 9.33319 9.95909 9.23256 10.06L10.6486 11.4724ZM10.3509 11.6717C10.2395 11.7179 10.1201 11.7417 9.99955 11.7417V9.74171C9.85705 9.74171 9.71596 9.76982 9.58435 9.82444L10.3509 11.6717ZM9.99955 11.7417C9.87897 11.7417 9.75958 11.7179 9.64822 11.6717L10.4148 9.82444C10.2831 9.76982 10.142 9.74171 9.99955 9.74171V11.7417ZM9.64822 11.6717C9.53685 11.6255 9.43569 11.5578 9.35054 11.4724L10.7665 10.06C10.6659 9.95909 10.5464 9.87905 10.4148 9.82444L9.64822 11.6717ZM9.3514 11.4733L12.4383 14.5605L13.8526 13.1464L10.7657 10.0591L9.3514 11.4733ZM12.4382 14.5604C12.5775 14.6997 12.7428 14.8103 12.9248 14.8857L13.6906 13.0381C13.7512 13.0632 13.8063 13.1001 13.8528 13.1465L12.4382 14.5604ZM12.9248 14.8857C13.1067 14.9611 13.3018 15 13.4988 15L13.4992 13C13.5649 13 13.6299 13.013 13.6906 13.0381L12.9248 14.8857ZM13.4988 15C13.6957 15 13.8908 14.9613 14.0728 14.886L13.3079 13.038C13.3686 13.0129 13.4336 13 13.4992 13L13.4988 15ZM14.0728 14.886C14.2548 14.8106 14.4202 14.7002 14.5595 14.5609L13.1456 13.1464C13.1921 13.1 13.2472 13.0631 13.3079 13.038L14.0728 14.886ZM14.5595 14.5609C14.6988 14.4217 14.8094 14.2563 14.8848 14.0744L13.0372 13.3086C13.0623 13.2479 13.0992 13.1928 13.1456 13.1464L14.5595 14.5609ZM14.8848 14.0744C14.9602 13.8924 14.9991 13.6974 14.9991 13.5004L12.9991 13.4999C12.9991 13.4342 13.0121 13.3692 13.0372 13.3086L14.8848 14.0744ZM14.9991 13.5004C14.9991 13.3034 14.9604 13.1083 14.8851 12.9263L13.0371 13.6913C13.012 13.6306 12.9991 13.5656 12.9991 13.4999L14.9991 13.5004ZM14.8851 12.9263C14.8097 12.7443 14.6993 12.5789 14.56 12.4396L13.1455 13.8535C13.099 13.8071 13.0622 13.7519 13.0371 13.6913L14.8851 12.9263ZM14.56 12.4396L11.4734 9.35166L10.0589 10.7656L13.1455 13.8535L14.56 12.4396ZM11.4723 9.35061C11.5577 9.43576 11.6254 9.53692 11.6716 9.64829L9.82437 10.4148C9.87898 10.5464 9.95902 10.666 10.0599 10.7666L11.4723 9.35061ZM11.6716 9.64829C11.7179 9.75965 11.7416 9.87904 11.7416 9.99962H9.74164C9.74164 10.1421 9.76975 10.2832 9.82437 10.4148L11.6716 9.64829ZM11.7416 9.99962C11.7416 10.1202 11.7179 10.2396 11.6716 10.351L9.82437 9.58442C9.76975 9.71603 9.74164 9.85712 9.74164 9.99962H11.7416ZM11.6716 10.351C11.6254 10.4623 11.5577 10.5635 11.4723 10.6486L10.0599 9.23263C9.95902 9.33326 9.87898 9.4528 9.82437 9.58442L11.6716 10.351ZM11.4732 10.6478L14.5605 7.56082L13.1463 6.14653L10.0591 9.23348L11.4732 10.6478ZM14.561 7.56028C14.8422 7.27874 14.9999 6.89704 14.9997 6.49916L12.9997 6.50057C12.9996 6.36802 13.0521 6.24086 13.1458 6.14707L14.561 7.56028ZM14.9997 6.49916C14.9994 6.10127 14.8411 5.7198 14.5595 5.43865L13.1463 6.85387C13.0525 6.76021 12.9998 6.63312 12.9997 6.50057L14.9997 6.49916ZM14.5595 5.43865C14.278 5.15751 13.8963 4.99972 13.4984 5L13.4998 7C13.3673 7.00009 13.2401 6.94753 13.1463 6.85387L14.5595 5.43865ZM13.4984 5C13.1005 5.00028 12.719 5.15861 12.4379 5.44015L13.8531 6.85337C13.7594 6.94716 13.6324 6.99991 13.4998 7L13.4984 5ZM12.4385 5.43958L9.35151 8.52586L10.7656 9.94023L13.8525 6.85394L12.4385 5.43958ZM9.35054 8.52683C9.43569 8.44147 9.53685 8.37374 9.64822 8.32753L10.4148 10.1748C10.5464 10.1202 10.6659 10.0401 10.7665 9.93926L9.35054 8.52683ZM9.64822 8.32753C9.75958 8.28131 9.87897 8.25753 9.99955 8.25753V10.2575C10.142 10.2575 10.2831 10.2294 10.4148 10.1748L9.64822 8.32753ZM9.99955 8.25753C10.1201 8.25753 10.2395 8.28131 10.3509 8.32753L9.58435 10.1748C9.71596 10.2294 9.85705 10.2575 9.99955 10.2575V8.25753ZM10.3509 8.32753C10.4623 8.37374 10.5634 8.44147 10.6486 8.52683L9.23256 9.93926C9.33319 10.0401 9.45273 10.1202 9.58435 10.1748L10.3509 8.32753ZM10.6476 8.52586L7.56063 5.43958L6.14657 6.85394L9.23353 9.94023L10.6476 8.52586ZM7.56088 5.43982C7.42162 5.3005 7.25629 5.18997 7.07433 5.11455L6.30852 6.96213C6.24786 6.93699 6.19275 6.90014 6.14633 6.8537L7.56088 5.43982ZM7.07433 5.11455C6.89236 5.03913 6.69731 5.00028 6.50033 5.00024L6.49986 7.00024C6.4342 7.00022 6.36918 6.98727 6.30852 6.96213L7.07433 5.11455ZM6.50033 5.00024C6.10251 5.00014 5.72095 5.15809 5.43958 5.43932L6.85346 6.85387C6.75967 6.94762 6.63248 7.00027 6.49986 7.00024L6.50033 5.00024ZM5.43958 5.43932C5.15822 5.72055 5.00009 6.10204 5 6.49986L7 6.50033C6.99997 6.63295 6.94726 6.76012 6.85346 6.85387L5.43958 5.43932ZM5 6.49986C4.99991 6.89768 5.15785 7.27925 5.43908 7.56061L6.85363 6.14673C6.94738 6.24053 7.00003 6.36772 7 6.50033L5 6.49986ZM5.43921 7.56074L8.52583 10.6477L9.94012 9.23356L6.8535 6.1466L5.43921 7.56074ZM8.52676 10.6486C8.4414 10.5635 8.37367 10.4623 8.32746 10.351L10.1747 9.58442C10.1201 9.4528 10.0401 9.33326 9.93919 9.23263L8.52676 10.6486ZM8.32746 10.351C8.28124 10.2396 8.25746 10.1202 8.25746 9.99962H10.2575C10.2575 9.85712 10.2293 9.71603 10.1747 9.58442L8.32746 10.351ZM8.25746 9.99962C8.25746 9.87904 8.28124 9.75965 8.32746 9.64829L10.1747 10.4148C10.2293 10.2832 10.2575 10.1421 10.2575 9.99962H8.25746ZM8.32746 9.64829C8.37367 9.53692 8.4414 9.43576 8.52676 9.35061L9.93919 10.7666C10.0401 10.666 10.1201 10.5464 10.1747 10.4148L8.32746 9.64829ZM8.52579 9.35158L5.43917 12.4389L6.85354 13.8529L9.94016 10.7656L8.52579 9.35158Z" fill="#707D8B" mask="url(#path-1-inside-1_9113_2935)"/>
<circle cx="10" cy="10" r="9.60417" stroke="#707D8B" stroke-width="0.791667"/>
</svg>
