<svg width="10" height="12" viewBox="0 0 10 12" fill="none" xmlns="http://www.w3.org/2000/svg">
<path fill-rule="evenodd" clip-rule="evenodd" d="M3.27275 0.000100041C2.67551 0.000100041 2.18183 0.493753 2.18183 1.09102C2.18031 1.2005 2.22273 1.30598 2.29959 1.38397C2.37644 1.46196 2.48145 1.50591 2.59094 1.50591C2.70042 1.50591 2.80533 1.46197 2.88229 1.38397C2.95914 1.30598 3.00156 1.20049 3.00004 1.09102C3.00004 0.932834 3.11456 0.818317 3.27274 0.818317L8.7272 0.818222C8.88538 0.818222 8.9999 0.932744 8.9999 1.09092V8.72716C8.9999 8.88534 8.88537 8.99986 8.7272 8.99986C8.61772 8.99833 8.51214 9.04076 8.43414 9.11761C8.35615 9.19456 8.3123 9.29948 8.3123 9.40896C8.3123 9.51845 8.35615 9.62345 8.43414 9.70031C8.51214 9.77717 8.61772 9.81959 8.7272 9.81807C9.32444 9.81807 9.81811 9.32442 9.81811 8.72715V1.09092C9.81811 0.493677 9.32453 0 8.7272 0L3.27275 0.000100041ZM1.09092 2.18193C0.493677 2.18193 0 2.67558 0 3.27285V10.9091C0 11.5063 0.493579 12 1.09092 12L6.54537 11.9998C7.14261 11.9998 7.63629 11.5062 7.63629 10.9089V3.27266C7.63629 2.67542 7.14271 2.18174 6.54537 2.18174L1.09092 2.18193ZM1.09092 3.00015L6.54537 3.00005C6.70355 3.00005 6.81807 3.11457 6.81807 3.27275V10.909C6.81807 11.0672 6.70355 11.1817 6.54537 11.1817H1.09092C0.932734 11.1817 0.818217 11.0672 0.818217 10.909V3.27275C0.818217 3.11457 0.932739 3.00005 1.09092 3.00005V3.00015Z" fill="#1E2021"/>
</svg>
