<svg width="4" height="19" viewBox="0 0 4 19" fill="none" xmlns="http://www.w3.org/2000/svg">
<path d="M3.3142 9.45046C3.3142 9.77227 3.21877 10.0868 3.03999 10.3544C2.8612 10.622 2.60709 10.8305 2.30978 10.9537C2.01247 11.0768 1.68532 11.109 1.3697 11.0463C1.05408 10.9835 0.764167 10.8285 0.536617 10.601C0.309067 10.3734 0.154104 10.0835 0.091323 9.76789C0.0285422 9.45227 0.0607636 9.12512 0.183913 8.82781C0.307062 8.5305 0.515608 8.27639 0.783178 8.0976C1.05075 7.91882 1.36533 7.82339 1.68713 7.82339C2.11866 7.82339 2.53251 7.99481 2.83764 8.29995C3.14278 8.60508 3.3142 9.01894 3.3142 9.45046ZM1.68713 3.59301C2.00893 3.59301 2.32351 3.49758 2.59108 3.3188C2.85865 3.14001 3.0672 2.8859 3.19035 2.58859C3.31349 2.29128 3.34572 1.96413 3.28294 1.64851C3.22016 1.33289 3.06519 1.04298 2.83764 0.815426C2.61009 0.587876 2.32018 0.432912 2.00455 0.370132C1.68893 0.307351 1.36179 0.339572 1.06448 0.462721C0.767169 0.58587 0.513055 0.794416 0.33427 1.06199C0.155485 1.32956 0.0600595 1.64413 0.0600595 1.96594C0.0600595 2.39746 0.231482 2.81132 0.536617 3.11645C0.841752 3.42159 1.2556 3.59301 1.68713 3.59301ZM1.68713 15.3079C1.36533 15.3079 1.05075 15.4033 0.783178 15.5821C0.515608 15.7609 0.307062 16.015 0.183913 16.3123C0.0607636 16.6096 0.0285422 16.9368 0.091323 17.2524C0.154104 17.568 0.309067 17.8579 0.536617 18.0855C0.764167 18.313 1.05408 18.468 1.3697 18.5308C1.68532 18.5936 2.01247 18.5613 2.30978 18.4382C2.60709 18.3151 2.8612 18.1065 3.03999 17.8389C3.21877 17.5714 3.3142 17.2568 3.3142 16.935C3.3142 16.5035 3.14278 16.0896 2.83764 15.7845C2.53251 15.4793 2.11866 15.3079 1.68713 15.3079Z" fill="#1A212B"/>
</svg>
