<svg width="17" height="12" viewBox="0 0 17 12" fill="none" xmlns="http://www.w3.org/2000/svg">
<path d="M1.0659 0.500031L1.0659 0.50008H1.0729H15.6771V0.500129L15.6841 0.500031C15.726 0.499444 15.7676 0.507125 15.8062 0.522514C15.8449 0.5379 15.8798 0.560618 15.9089 0.589109C15.9381 0.617591 15.961 0.651264 15.9765 0.688039C15.9921 0.7248 16 0.76408 16 0.80364C16 0.843201 15.9921 0.882481 15.9765 0.919242C15.961 0.956017 15.9381 0.98969 15.9089 1.01817C15.8798 1.04666 15.8449 1.06938 15.8062 1.08477C15.7676 1.10016 15.726 1.10784 15.6841 1.10725L15.6841 1.1072H15.6771H1.0729V1.10715L1.0659 1.10725C1.02396 1.10784 0.982431 1.10016 0.943763 1.08477C0.905104 1.06938 0.870234 1.04666 0.841057 1.01817C0.81189 0.98969 0.788996 0.956017 0.773462 0.919242C0.757932 0.882477 0.75 0.843197 0.75 0.80364C0.75 0.764084 0.757932 0.724803 0.773462 0.688039C0.788996 0.651263 0.81189 0.61759 0.841057 0.589109C0.870234 0.560618 0.905104 0.5379 0.943763 0.522514C0.982431 0.507125 1.02396 0.499444 1.0659 0.500031ZM1.0659 5.32139L1.0659 5.32144H1.0729H15.6771V5.32149L15.6841 5.32139C15.726 5.3208 15.7676 5.32848 15.8062 5.34387C15.8449 5.35926 15.8798 5.38198 15.9089 5.41047C15.9381 5.43895 15.961 5.47262 15.9765 5.5094C15.9921 5.54616 16 5.58544 16 5.625C16 5.66456 15.9921 5.70384 15.9765 5.7406C15.961 5.77738 15.9381 5.81105 15.9089 5.83953C15.8798 5.86802 15.8449 5.89074 15.8062 5.90613C15.7676 5.92152 15.726 5.9292 15.6841 5.92861L15.6841 5.92856H15.6771H1.0729V5.92851L1.0659 5.92861C1.02396 5.9292 0.98243 5.92152 0.943763 5.90613C0.905105 5.89074 0.870235 5.86802 0.841057 5.83953C0.81189 5.81105 0.788996 5.77738 0.773462 5.7406C0.757932 5.70384 0.75 5.66456 0.75 5.625C0.75 5.58544 0.757932 5.54616 0.773462 5.5094C0.788996 5.47262 0.81189 5.43895 0.841057 5.41047C0.870234 5.38198 0.905104 5.35926 0.943763 5.34387C0.982431 5.32848 1.02396 5.3208 1.0659 5.32139ZM1.0659 10.1428L1.0659 10.1428H1.0729H15.6771V10.1428L15.6841 10.1428C15.726 10.1422 15.7676 10.1498 15.8062 10.1652C15.8449 10.1806 15.8798 10.2033 15.9089 10.2318C15.9381 10.2603 15.961 10.294 15.9765 10.3308C15.9921 10.3675 16 10.4068 16 10.4464C16 10.4859 15.9921 10.5252 15.9765 10.562C15.961 10.5987 15.9381 10.6324 15.9089 10.6609C15.8798 10.6894 15.8449 10.7121 15.8062 10.7275C15.7676 10.7429 15.726 10.7506 15.6841 10.75L15.6841 10.7499H15.6771H1.0729V10.7499L1.0659 10.75C1.02397 10.7506 0.982434 10.7429 0.943763 10.7275C0.905103 10.7121 0.870233 10.6894 0.841057 10.6609C0.811889 10.6324 0.788995 10.5987 0.773462 10.562C0.757932 10.5252 0.75 10.4859 0.75 10.4464C0.75 10.4068 0.757932 10.3675 0.773462 10.3308C0.788996 10.294 0.81189 10.2603 0.841057 10.2318C0.870233 10.2033 0.905103 10.1806 0.943763 10.1652C0.982431 10.1498 1.02396 10.1422 1.0659 10.1428Z" fill="white" stroke="white"/>
</svg>
