<svg width="24" height="24" viewBox="0 0 24 24" fill="none" xmlns="http://www.w3.org/2000/svg">
<circle cx="12" cy="12" r="10" fill="url(#paint0_linear_3369_658)"/>
<g clip-path="url(#clip0_3369_658)">
<path d="M16.1211 8.19141H7.87886C7.74357 8.19141 7.61691 8.22467 7.50232 8.27949L11.9804 12.7576L12.9841 11.793C12.9841 11.793 12.9842 11.7929 12.9842 11.7929C12.9842 11.7928 12.9843 11.7928 12.9843 11.7928L16.4977 8.27957C16.3831 8.22471 16.2564 8.19141 16.1211 8.19141Z" fill="white"/>
<path d="M16.912 8.69388L13.6057 12L16.9119 15.3062C16.9667 15.1916 17 15.065 17 14.9297V9.07028C17 8.93507 16.9668 8.80843 16.912 8.69388Z" fill="white"/>
<path d="M7.08809 8.69379C7.03326 8.80838 7 8.93504 7 9.07033V14.9297C7 15.0649 7.03322 15.1916 7.08801 15.3061L10.3943 12L7.08809 8.69379Z" fill="white"/>
<path d="M13.1914 12.4143L12.1876 13.379C12.1304 13.4362 12.0554 13.4648 11.9805 13.4648C11.9055 13.4648 11.8305 13.4362 11.7733 13.379L10.8086 12.4142L7.5022 15.7204C7.61681 15.7753 7.74354 15.8086 7.87888 15.8086H16.1211C16.2564 15.8086 16.383 15.7753 16.4976 15.7205L13.1914 12.4143Z" fill="white"/>
</g>
<defs>
<linearGradient id="paint0_linear_3369_658" x1="2" y1="2" x2="22" y2="22" gradientUnits="userSpaceOnUse">
<stop stop-color="#23A6CA"/>
<stop offset="1" stop-color="#1E5057"/>
</linearGradient>
<clipPath id="clip0_3369_658">
<rect width="10" height="10" fill="white" transform="translate(7 7)"/>
</clipPath>
</defs>
</svg>
