<svg width="24" height="24" viewBox="0 0 24 24" fill="none" xmlns="http://www.w3.org/2000/svg">
<circle cx="12" cy="12" r="10" fill="url(#paint0_linear_3369_651)"/>
<g clip-path="url(#clip0_3369_651)">
<path d="M14.5696 12.9918C14.2897 12.9316 14.0683 13.0615 13.8722 13.175C13.6714 13.292 13.2897 13.6017 13.0709 13.5224C11.9505 13.0611 10.8968 12.0805 10.4406 10.9556C10.3602 10.7321 10.6685 10.3479 10.7846 10.1448C10.8972 9.94815 11.0244 9.72465 10.9664 9.44268C10.914 9.18929 10.2355 8.32605 9.99565 8.08999C9.83744 7.93406 9.67536 7.8483 9.50899 7.83443C8.88345 7.80758 8.18484 8.64224 8.06231 8.84191C7.75535 9.26769 7.75707 9.83423 8.06747 10.5212C8.81553 12.3664 11.6448 15.151 13.4969 15.9272C13.8387 16.087 14.1512 16.1671 14.432 16.1671C14.7067 16.1671 14.9513 16.0905 15.1616 15.9385C15.3202 15.847 16.1891 15.1137 16.1663 14.4714C16.1525 14.3077 16.067 14.144 15.9131 13.9854C15.6787 13.7433 14.8211 13.0447 14.5696 12.9918Z" fill="white"/>
</g>
<defs>
<linearGradient id="paint0_linear_3369_651" x1="2" y1="2" x2="22" y2="22" gradientUnits="userSpaceOnUse">
<stop stop-color="#23A6CA"/>
<stop offset="1" stop-color="#1E5057"/>
</linearGradient>
<clipPath id="clip0_3369_651">
<rect width="10" height="10" fill="white" transform="translate(7 7)"/>
</clipPath>
</defs>
</svg>
