<svg width="165" height="69" viewBox="0 0 165 69" fill="none" xmlns="http://www.w3.org/2000/svg">
<path d="M31.0648 22.2553C32.566 19.6551 36.3191 19.6551 37.8204 22.2553L46.687 37.6128C48.1883 40.213 46.3117 43.4633 43.3092 43.4633H25.5759C22.5734 43.4633 20.6969 40.213 22.1981 37.6128L31.0648 22.2553Z" fill="#DEF6EF"/>
<mask id="path-2-inside-1_6531_501" fill="white">
<path fill-rule="evenodd" clip-rule="evenodd" d="M34.2855 31.9344C34.2095 31.9328 34.1331 31.9294 34.0565 31.9245C31.1599 31.7364 28.9641 29.2358 29.1522 26.3391C29.3402 23.4425 31.8409 21.2468 34.7375 21.4348C36.7601 21.5661 38.4409 22.8249 39.2071 24.5588L39.209 24.556C39.209 24.556 46.2328 34.7494 43.1396 32.5141C41.1334 31.0643 39.4588 31.3477 37.5858 31.6647C36.571 31.8364 35.4979 32.018 34.2824 31.9391L34.2855 31.9344Z"/>
</mask>
<path fill-rule="evenodd" clip-rule="evenodd" d="M34.2855 31.9344C34.2095 31.9328 34.1331 31.9294 34.0565 31.9245C31.1599 31.7364 28.9641 29.2358 29.1522 26.3391C29.3402 23.4425 31.8409 21.2468 34.7375 21.4348C36.7601 21.5661 38.4409 22.8249 39.2071 24.5588L39.209 24.556C39.209 24.556 46.2328 34.7494 43.1396 32.5141C41.1334 31.0643 39.4588 31.3477 37.5858 31.6647C36.571 31.8364 35.4979 32.018 34.2824 31.9391L34.2855 31.9344Z" fill="url(#paint0_linear_6531_501)"/>
<path d="M34.2855 31.9344L34.3666 31.9885L34.4652 31.8408L34.2876 31.8369L34.2855 31.9344ZM39.2071 24.5588L39.118 24.5982L39.1897 24.7606L39.2883 24.6129L39.2071 24.5588ZM39.209 24.556L39.2893 24.5007L39.2077 24.3823L39.1279 24.5019L39.209 24.556ZM43.1396 32.5141L43.0825 32.5931L43.1396 32.5141ZM37.5858 31.6647L37.6021 31.7608L37.5858 31.6647ZM34.2824 31.9391L34.2013 31.885L34.1075 32.0254L34.2761 32.0364L34.2824 31.9391ZM34.2876 31.8369C34.213 31.8353 34.138 31.8321 34.0628 31.8272L34.0502 32.0218C34.1282 32.0268 34.2059 32.0302 34.2834 32.0319L34.2876 31.8369ZM34.0628 31.8272C31.2199 31.6426 29.0649 29.1883 29.2495 26.3454L29.0549 26.3328C28.8633 29.2832 31.0998 31.8302 34.0502 32.0218L34.0628 31.8272ZM29.2495 26.3454C29.434 23.5025 31.8883 21.3475 34.7312 21.5321L34.7438 21.3375C31.7934 21.146 29.2464 23.3824 29.0549 26.3328L29.2495 26.3454ZM34.7312 21.5321C36.7161 21.661 38.3658 22.8963 39.118 24.5982L39.2963 24.5194C38.516 22.7536 36.8041 21.4713 34.7438 21.3375L34.7312 21.5321ZM39.2883 24.6129L39.2901 24.6101L39.1279 24.5019L39.126 24.5047L39.2883 24.6129ZM39.209 24.556C39.1287 24.6113 39.1287 24.6114 39.1288 24.6115C39.1288 24.6115 39.1289 24.6116 39.129 24.6118C39.1292 24.6121 39.1295 24.6126 39.1299 24.6132C39.1308 24.6144 39.1321 24.6162 39.1337 24.6187C39.1371 24.6235 39.1421 24.6308 39.1487 24.6404C39.1618 24.6596 39.1813 24.688 39.2066 24.725C39.2572 24.799 39.3311 24.9073 39.424 25.0444C39.6099 25.3185 39.872 25.7077 40.1768 26.1677C40.7867 27.0879 41.5671 28.2909 42.2508 29.4237C42.9362 30.5595 43.5187 31.6156 43.7383 32.2458C43.7932 32.4032 43.8228 32.5271 43.8281 32.6156C43.8339 32.7105 43.8105 32.7292 43.8072 32.7312C43.7986 32.7366 43.7568 32.7495 43.6419 32.7028C43.5341 32.659 43.3877 32.5731 43.1967 32.4351L43.0825 32.5931C43.2782 32.7346 43.4394 32.831 43.5685 32.8834C43.6905 32.933 43.815 32.9561 43.9104 32.8967C44.0111 32.8339 44.0294 32.7127 44.0228 32.6039C44.0159 32.4886 43.9793 32.3448 43.9225 32.1816C43.6951 31.5292 43.1016 30.4561 42.4177 29.3229C41.7321 28.1868 40.9499 26.9812 40.3394 26.06C40.0341 25.5993 39.7716 25.2095 39.5855 24.9349C39.4924 24.7976 39.4184 24.6891 39.3676 24.6149C39.3422 24.5778 39.3227 24.5493 39.3094 24.53C39.3028 24.5204 39.2978 24.5131 39.2944 24.5081C39.2927 24.5057 39.2914 24.5038 39.2906 24.5026C39.2902 24.502 39.2898 24.5015 39.2896 24.5012C39.2895 24.501 39.2894 24.5009 39.2894 24.5008C39.2893 24.5007 39.2893 24.5007 39.209 24.556ZM43.1967 32.4351C42.1792 31.6997 41.2418 31.4018 40.3203 31.3296C39.4027 31.2578 38.5038 31.4104 37.5695 31.5685L37.6021 31.7608C38.5407 31.602 39.4156 31.4544 40.3051 31.5241C41.1907 31.5934 42.0938 31.8787 43.0825 32.5931L43.1967 32.4351ZM37.5695 31.5685C36.5539 31.7404 35.4914 31.9198 34.2887 31.8418L34.2761 32.0364C35.5045 32.1161 36.5881 31.9324 37.6021 31.7608L37.5695 31.5685ZM34.3635 31.9932L34.3666 31.9885L34.2044 31.8803L34.2013 31.885L34.3635 31.9932Z" fill="white" mask="url(#path-2-inside-1_6531_501)"/>
<mask id="path-4-inside-2_6531_501" fill="white">
<path fill-rule="evenodd" clip-rule="evenodd" d="M34.5147 27.9756C34.4583 27.9747 34.4016 27.9726 34.3447 27.9693C32.1942 27.8443 30.5523 25.9996 30.6774 23.8491C30.8024 21.6987 32.6471 20.0568 34.7976 20.1818C36.2991 20.2691 37.5527 21.1949 38.13 22.4777L38.1311 22.476L43.1912 30.7795C43.1912 30.7795 39.7799 28.5544 37.7999 28.1706C36.64 27.9458 35.7107 27.9188 35.14 27.935C34.9437 27.9637 34.7431 27.9777 34.5392 27.9758C34.5213 27.9781 34.5122 27.9794 34.5122 27.9794L34.5147 27.9756Z"/>
</mask>
<path fill-rule="evenodd" clip-rule="evenodd" d="M34.5147 27.9756C34.4583 27.9747 34.4016 27.9726 34.3447 27.9693C32.1942 27.8443 30.5523 25.9996 30.6774 23.8491C30.8024 21.6987 32.6471 20.0568 34.7976 20.1818C36.2991 20.2691 37.5527 21.1949 38.13 22.4777L38.1311 22.476L43.1912 30.7795C43.1912 30.7795 39.7799 28.5544 37.7999 28.1706C36.64 27.9458 35.7107 27.9188 35.14 27.935C34.9437 27.9637 34.7431 27.9777 34.5392 27.9758C34.5213 27.9781 34.5122 27.9794 34.5122 27.9794L34.5147 27.9756Z" fill="#5CD1AE" fill-opacity="0.5"/>
<path d="M34.5147 27.9756L34.5962 28.0291L34.6937 27.8808L34.5162 27.8781L34.5147 27.9756ZM38.13 22.4777L38.0411 22.5177L38.1139 22.6796L38.2115 22.5313L38.13 22.4777ZM38.1311 22.476L38.2144 22.4253L38.1342 22.2938L38.0496 22.4225L38.1311 22.476ZM43.1912 30.7795L43.1379 30.8611L43.2744 30.7287L43.1912 30.7795ZM37.7999 28.1706L37.7814 28.2664L37.7999 28.1706ZM35.14 27.935L35.1372 27.8368L35.1259 27.8385L35.14 27.935ZM34.5392 27.9758L34.5401 27.8775L34.5271 27.8791L34.5392 27.9758ZM34.5122 27.9794L34.4307 27.9259L34.3112 28.1076L34.5264 28.0759L34.5122 27.9794ZM34.5162 27.8781C34.4611 27.8772 34.4058 27.8752 34.3503 27.872L34.339 28.0667C34.3973 28.07 34.4554 28.0722 34.5132 28.0731L34.5162 27.8781ZM34.3503 27.872C32.2536 27.75 30.6528 25.9515 30.7747 23.8548L30.58 23.8435C30.4518 26.0477 32.1348 27.9385 34.339 28.0667L34.3503 27.872ZM30.7747 23.8548C30.8966 21.7581 32.6952 20.1572 34.7919 20.2792L34.8032 20.0845C32.599 19.9563 30.7082 21.6393 30.58 23.8435L30.7747 23.8548ZM34.7919 20.2792C36.2558 20.3643 37.4781 21.2667 38.0411 22.5177L38.2189 22.4377C37.6273 21.1231 36.3425 20.174 34.8032 20.0845L34.7919 20.2792ZM38.2115 22.5313L38.2126 22.5296L38.0496 22.4225L38.0485 22.4242L38.2115 22.5313ZM38.0478 22.5268L43.1079 30.8302L43.2744 30.7287L38.2144 22.4253L38.0478 22.5268ZM43.1912 30.7795C43.2444 30.6978 43.2444 30.6978 43.2444 30.6978C43.2444 30.6977 43.2443 30.6977 43.2442 30.6977C43.2441 30.6976 43.244 30.6975 43.2438 30.6974C43.2433 30.6971 43.2427 30.6967 43.2418 30.6961C43.2401 30.695 43.2376 30.6934 43.2343 30.6912C43.2277 30.687 43.218 30.6806 43.2051 30.6724C43.1795 30.6559 43.1417 30.6317 43.0929 30.6008C42.9954 30.5389 42.854 30.4502 42.6781 30.3426C42.3264 30.1275 41.8368 29.8365 41.285 29.5335C40.1851 28.9295 38.8252 28.27 37.8185 28.0749L37.7814 28.2664C38.7547 28.455 40.0903 29.0999 41.1911 29.7044C41.7396 30.0056 42.2265 30.2949 42.5763 30.509C42.7512 30.616 42.8917 30.7041 42.9885 30.7655C43.0369 30.7961 43.0743 30.8201 43.0996 30.8364C43.1122 30.8445 43.1219 30.8507 43.1283 30.8549C43.1315 30.857 43.1339 30.8586 43.1355 30.8596C43.1363 30.8601 43.1369 30.8605 43.1373 30.8608C43.1375 30.8609 43.1377 30.861 43.1378 30.8611C43.1378 30.8611 43.1378 30.8611 43.1379 30.8611C43.1379 30.8611 43.1379 30.8611 43.1912 30.7795ZM37.8185 28.0749C36.6505 27.8485 35.714 27.8212 35.1372 27.8375L35.1427 28.0324C35.7075 28.0164 36.6295 28.0431 37.7814 28.2664L37.8185 28.0749ZM35.1259 27.8385C34.9346 27.8665 34.7389 27.8801 34.5401 27.8783L34.5383 28.0734C34.7472 28.0752 34.9529 28.0609 35.1541 28.0315L35.1259 27.8385ZM34.5271 27.8791C34.5178 27.8803 34.5107 27.8812 34.5058 27.8819C34.5034 27.8822 34.5015 27.8825 34.5002 27.8826C34.4995 27.8827 34.499 27.8828 34.4986 27.8829C34.4985 27.8829 34.4983 27.8829 34.4982 27.8829C34.4981 27.8829 34.4981 27.8829 34.498 27.883C34.498 27.883 34.498 27.883 34.498 27.883C34.498 27.883 34.498 27.883 34.498 27.883C34.498 27.883 34.498 27.883 34.498 27.883C34.498 27.883 34.498 27.883 34.498 27.883C34.498 27.883 34.498 27.883 34.5122 27.9794C34.5264 28.0759 34.5264 28.0759 34.5264 28.0759C34.5264 28.0759 34.5264 28.0759 34.5264 28.0759C34.5263 28.0759 34.5263 28.0759 34.5263 28.0759C34.5263 28.0759 34.5263 28.0759 34.5263 28.0759C34.5263 28.0759 34.5263 28.0759 34.5263 28.0759C34.5263 28.0759 34.5263 28.0759 34.5263 28.0759C34.5264 28.0759 34.5264 28.0759 34.5265 28.0759C34.5267 28.0758 34.5271 28.0758 34.5276 28.0757C34.5285 28.0756 34.53 28.0754 34.5321 28.0751C34.5363 28.0745 34.5427 28.0737 34.5513 28.0726L34.5271 27.8791ZM34.5936 28.033L34.5962 28.0291L34.4332 27.922L34.4307 27.9259L34.5936 28.033Z" fill="#5CD1AE" mask="url(#path-4-inside-2_6531_501)"/>
<mask id="path-6-inside-3_6531_501" fill="white">
<path fill-rule="evenodd" clip-rule="evenodd" d="M32.8214 35.7859C32.8588 35.8522 32.8949 35.9196 32.9297 35.9881C34.2458 38.5754 33.2153 41.7396 30.628 43.0557C28.0407 44.3717 24.8765 43.3412 23.5604 40.754C22.6415 38.9473 22.8667 36.8594 23.9671 35.3158L23.9636 35.3156C23.9636 35.3156 29.1473 24.0742 28.8028 27.875C28.5794 30.3401 29.6775 31.6359 30.9057 33.0851C31.5711 33.8703 32.2747 34.7005 32.827 35.7862L32.8214 35.7859Z"/>
</mask>
<path fill-rule="evenodd" clip-rule="evenodd" d="M32.8214 35.7859C32.8588 35.8522 32.8949 35.9196 32.9297 35.9881C34.2458 38.5754 33.2153 41.7396 30.628 43.0557C28.0407 44.3717 24.8765 43.3412 23.5604 40.754C22.6415 38.9473 22.8667 36.8594 23.9671 35.3158L23.9636 35.3156C23.9636 35.3156 29.1473 24.0742 28.8028 27.875C28.5794 30.3401 29.6775 31.6359 30.9057 33.0851C31.5711 33.8703 32.2747 34.7005 32.827 35.7862L32.8214 35.7859Z" fill="url(#paint1_linear_6531_501)"/>
<path d="M32.8214 35.7859L32.8266 35.6886L32.6492 35.6791L32.7364 35.8338L32.8214 35.7859ZM23.9671 35.3158L24.0465 35.3724L24.1496 35.2279L23.9723 35.2184L23.9671 35.3158ZM23.9636 35.3156L23.8751 35.2748L23.8149 35.4054L23.9584 35.413L23.9636 35.3156ZM28.8028 27.875L28.8999 27.8838L28.8028 27.875ZM30.9057 33.0851L30.98 33.022L30.9057 33.0851ZM32.827 35.7862L32.8218 35.8836L32.9905 35.8926L32.9139 35.742L32.827 35.7862ZM32.7364 35.8338C32.7731 35.8989 32.8086 35.9651 32.8428 36.0323L33.0167 35.9439C32.9812 35.8742 32.9444 35.8055 32.9063 35.738L32.7364 35.8338ZM32.8428 36.0323C34.1345 38.5716 33.1231 41.6771 30.5838 42.9688L30.6722 43.1426C33.3075 41.8021 34.3571 38.5792 33.0167 35.9439L32.8428 36.0323ZM30.5838 42.9688C28.0445 44.2604 24.939 43.249 23.6474 40.7097L23.4735 40.7982C24.814 43.4334 28.037 44.4831 30.6722 43.1426L30.5838 42.9688ZM23.6474 40.7097C22.7455 38.9368 22.9663 36.8876 24.0465 35.3724L23.8877 35.2592C22.767 36.8312 22.5375 38.9579 23.4735 40.7982L23.6474 40.7097ZM23.9723 35.2184L23.9688 35.2183L23.9584 35.413L23.9619 35.4132L23.9723 35.2184ZM23.9636 35.3156C24.0522 35.3565 24.0522 35.3564 24.0522 35.3563C24.0523 35.3563 24.0523 35.3561 24.0524 35.356C24.0525 35.3556 24.0528 35.3551 24.0531 35.3545C24.0537 35.3531 24.0546 35.3511 24.0559 35.3484C24.0584 35.343 24.0621 35.335 24.0669 35.3245C24.0767 35.3034 24.0912 35.2721 24.1101 35.2315C24.148 35.1502 24.2034 35.0314 24.2739 34.8815C24.4149 34.5818 24.6159 34.1579 24.856 33.661C25.3363 32.667 25.9728 31.382 26.5983 30.2161C27.2255 29.0471 27.8367 28.0074 28.2666 27.497C28.3741 27.3694 28.4655 27.2808 28.5389 27.231C28.6176 27.1777 28.6455 27.1883 28.6489 27.1901C28.658 27.1947 28.6904 27.2241 28.7088 27.3468C28.7262 27.4618 28.727 27.6316 28.7057 27.8662L28.8999 27.8838C28.9217 27.6434 28.9224 27.4556 28.9017 27.3177C28.8821 27.1875 28.8384 27.0686 28.7387 27.0169C28.6333 26.9623 28.5197 27.0084 28.4295 27.0696C28.3339 27.1344 28.2288 27.2392 28.1175 27.3713C27.6723 27.8998 27.0522 28.9577 26.4265 30.1239C25.7991 31.2933 25.1612 32.5811 24.6804 33.5761C24.4399 34.0737 24.2386 34.4983 24.0974 34.7985C24.0268 34.9486 23.9713 35.0677 23.9333 35.1492C23.9144 35.1899 23.8998 35.2213 23.89 35.2425C23.8851 35.2531 23.8814 35.2612 23.8789 35.2666C23.8776 35.2693 23.8767 35.2713 23.876 35.2727C23.8757 35.2734 23.8755 35.2739 23.8753 35.2743C23.8752 35.2744 23.8752 35.2746 23.8751 35.2747C23.8751 35.2748 23.8751 35.2748 23.9636 35.3156ZM28.7057 27.8662C28.5924 29.1165 28.8144 30.0747 29.2224 30.9041C29.6288 31.7299 30.2186 32.4252 30.8313 33.1481L30.98 33.022C30.3646 32.2957 29.7913 31.6185 29.3974 30.818C29.0052 30.0209 28.7898 29.0986 28.8999 27.8838L28.7057 27.8662ZM30.8313 33.1481C31.4973 33.9339 32.1936 34.7562 32.7401 35.8304L32.9139 35.742C32.3558 34.6448 31.645 33.8066 30.98 33.022L30.8313 33.1481ZM32.8322 35.6888L32.8266 35.6886L32.8162 35.8833L32.8218 35.8836L32.8322 35.6888Z" fill="white" mask="url(#path-6-inside-3_6531_501)"/>
<mask id="path-8-inside-4_6531_501" fill="white">
<path fill-rule="evenodd" clip-rule="evenodd" d="M29.2992 37.6079C29.3273 37.657 29.3545 37.7069 29.3808 37.7577C30.3703 39.671 29.6214 42.0243 27.7081 43.0138C25.7947 44.0034 23.4415 43.2545 22.4519 41.3411C21.7609 40.005 21.9176 38.4544 22.7266 37.3034L22.724 37.3033L27.2841 28.7151C27.2841 28.7151 27.1107 32.7842 27.7907 34.6829C28.1889 35.7945 28.6395 36.6073 28.9445 37.09C29.0699 37.2447 29.1848 37.4108 29.2876 37.5879C29.2981 37.6014 29.3036 37.6081 29.3036 37.6081L29.2992 37.6079Z"/>
</mask>
<path fill-rule="evenodd" clip-rule="evenodd" d="M29.2992 37.6079C29.3273 37.657 29.3545 37.7069 29.3808 37.7577C30.3703 39.671 29.6214 42.0243 27.7081 43.0138C25.7947 44.0034 23.4415 43.2545 22.4519 41.3411C21.7609 40.005 21.9176 38.4544 22.7266 37.3034L22.724 37.3033L27.2841 28.7151C27.2841 28.7151 27.1107 32.7842 27.7907 34.6829C28.1889 35.7945 28.6395 36.6073 28.9445 37.09C29.0699 37.2447 29.1848 37.4108 29.2876 37.5879C29.2981 37.6014 29.3036 37.6081 29.3036 37.6081L29.2992 37.6079Z" fill="#7CA9D8" fill-opacity="0.5"/>
<path d="M29.2992 37.6079L29.3037 37.5105L29.1263 37.5023L29.2146 37.6564L29.2992 37.6079ZM22.7266 37.3034L22.8064 37.3595L22.9085 37.2142L22.7311 37.206L22.7266 37.3034ZM22.724 37.3033L22.6379 37.2576L22.5657 37.3936L22.7195 37.4007L22.724 37.3033ZM27.2841 28.7151L27.3815 28.7192L27.1979 28.6693L27.2841 28.7151ZM27.7907 34.6829L27.8825 34.65L27.7907 34.6829ZM28.9445 37.09L28.8615 37.1424L28.8688 37.1514L28.9445 37.09ZM29.2876 37.5879L29.2026 37.6373L29.2106 37.6477L29.2876 37.5879ZM29.3036 37.6081L29.2991 37.7055L29.5164 37.7156L29.3794 37.5467L29.3036 37.6081ZM29.2146 37.6564C29.242 37.7043 29.2686 37.753 29.2942 37.8024L29.4674 37.7129C29.4405 37.6609 29.4126 37.6098 29.3838 37.5595L29.2146 37.6564ZM29.2942 37.8024C30.259 39.668 29.5288 41.9624 27.6633 42.9272L27.7529 43.1004C29.7141 42.0861 30.4817 39.674 29.4674 37.7129L29.2942 37.8024ZM27.6633 42.9272C25.7978 43.892 23.5033 43.1618 22.5385 41.2963L22.3653 41.3859C23.3796 43.3471 25.7917 44.1147 27.7529 43.1004L27.6633 42.9272ZM22.5385 41.2963C21.8649 39.9937 22.0175 38.4819 22.8064 37.3595L22.6468 37.2473C21.8178 38.4268 21.657 40.0163 22.3653 41.3859L22.5385 41.2963ZM22.7311 37.206L22.7285 37.2059L22.7195 37.4007L22.7221 37.4008L22.7311 37.206ZM22.8101 37.349L27.3702 28.7608L27.1979 28.6693L22.6379 37.2576L22.8101 37.349ZM27.2841 28.7151C27.1866 28.7109 27.1866 28.7109 27.1866 28.711C27.1866 28.711 27.1866 28.7111 27.1866 28.7111C27.1866 28.7113 27.1866 28.7115 27.1866 28.7117C27.1866 28.7123 27.1866 28.713 27.1865 28.714C27.1864 28.716 27.1863 28.719 27.1862 28.7229C27.1858 28.7308 27.1854 28.7424 27.1848 28.7577C27.1837 28.7882 27.1822 28.833 27.1805 28.8907C27.1771 29.0062 27.1729 29.1731 27.1701 29.3792C27.1645 29.7914 27.164 30.361 27.1849 30.9902C27.2266 32.2443 27.3532 33.7504 27.6989 34.7158L27.8825 34.65C27.5482 33.7167 27.4215 32.2389 27.3798 30.9837C27.3591 30.3583 27.3595 29.7919 27.3651 29.3819C27.3679 29.1769 27.372 29.011 27.3754 28.8965C27.3771 28.8393 27.3786 28.7948 27.3797 28.7648C27.3803 28.7498 27.3807 28.7383 27.381 28.7307C27.3812 28.7268 27.3813 28.724 27.3814 28.722C27.3814 28.7211 27.3814 28.7204 27.3815 28.7199C27.3815 28.7197 27.3815 28.7195 27.3815 28.7194C27.3815 28.7193 27.3815 28.7193 27.3815 28.7193C27.3815 28.7192 27.3815 28.7192 27.2841 28.7151ZM27.6989 34.7158C28.0999 35.8352 28.5538 36.6543 28.8621 37.1421L29.027 37.0379C28.7251 36.5602 28.2779 35.7539 27.8825 34.65L27.6989 34.7158ZM28.8688 37.1514C28.991 37.3022 29.1031 37.4642 29.2033 37.6368L29.372 37.5389C29.2666 37.3575 29.1488 37.1872 29.0203 37.0286L28.8688 37.1514ZM29.2106 37.6477C29.2161 37.6547 29.2203 37.6601 29.2232 37.6637C29.2247 37.6655 29.2258 37.6669 29.2266 37.6679C29.227 37.6684 29.2273 37.6688 29.2275 37.6691C29.2276 37.6692 29.2277 37.6693 29.2278 37.6694C29.2278 37.6694 29.2278 37.6695 29.2279 37.6695C29.2279 37.6695 29.2279 37.6695 29.2279 37.6695C29.2279 37.6696 29.2279 37.6696 29.2279 37.6696C29.2279 37.6696 29.2279 37.6696 29.2279 37.6696C29.2279 37.6696 29.2279 37.6696 29.2279 37.6696C29.2279 37.6696 29.2279 37.6696 29.3036 37.6081C29.3794 37.5467 29.3794 37.5467 29.3794 37.5467C29.3794 37.5467 29.3794 37.5467 29.3794 37.5467C29.3794 37.5467 29.3794 37.5467 29.3794 37.5467C29.3794 37.5467 29.3794 37.5467 29.3794 37.5467C29.3794 37.5467 29.3794 37.5467 29.3794 37.5467C29.3794 37.5467 29.3794 37.5467 29.3794 37.5467C29.3794 37.5467 29.3793 37.5467 29.3793 37.5466C29.3791 37.5464 29.3789 37.5462 29.3786 37.5458C29.3781 37.5451 29.3772 37.544 29.3759 37.5424C29.3734 37.5393 29.3697 37.5345 29.3646 37.528L29.2106 37.6477ZM29.3081 37.5107L29.3037 37.5105L29.2947 37.7053L29.2991 37.7055L29.3081 37.5107Z" fill="#7CA9D8" mask="url(#path-8-inside-4_6531_501)"/>
<mask id="path-10-inside-5_6531_501" fill="white">
<path fill-rule="evenodd" clip-rule="evenodd" d="M36.7815 35.2023C36.8203 35.1368 36.8607 35.0719 36.9026 35.0075C38.4877 32.5757 41.7439 31.8893 44.1757 33.4743C46.6075 35.0593 47.2939 38.3156 45.7089 40.7474C44.6021 42.4454 42.6805 43.2925 40.7937 43.1094L40.7954 43.1127C40.7954 43.1127 28.4671 44.2319 31.9325 42.6333C34.1801 41.5964 34.7547 39.9981 35.3975 38.2106C35.7457 37.242 36.1139 36.2179 36.7791 35.1975L36.7815 35.2023Z"/>
</mask>
<path fill-rule="evenodd" clip-rule="evenodd" d="M36.7815 35.2023C36.8203 35.1368 36.8607 35.0719 36.9026 35.0075C38.4877 32.5757 41.7439 31.8893 44.1757 33.4743C46.6075 35.0593 47.2939 38.3156 45.7089 40.7474C44.6021 42.4454 42.6805 43.2925 40.7937 43.1094L40.7954 43.1127C40.7954 43.1127 28.4671 44.2319 31.9325 42.6333C34.1801 41.5964 34.7547 39.9981 35.3975 38.2106C35.7457 37.242 36.1139 36.2179 36.7791 35.1975L36.7815 35.2023Z" fill="url(#paint2_linear_6531_501)"/>
<path d="M36.7815 35.2023L36.6946 35.2464L36.7749 35.4048L36.8654 35.252L36.7815 35.2023ZM40.7937 43.1094L40.8031 43.0123L40.6264 42.9952L40.7067 43.1535L40.7937 43.1094ZM40.7954 43.1127L40.8042 43.2098L40.9474 43.1968L40.8823 43.0685L40.7954 43.1127ZM31.9325 42.6333L31.9733 42.7218L31.9325 42.6333ZM35.3975 38.2106L35.3057 38.1776L35.3975 38.2106ZM36.7791 35.1975L36.866 35.1533L36.7896 35.0027L36.6974 35.1442L36.7791 35.1975ZM36.8654 35.252C36.9035 35.1877 36.9431 35.1239 36.9843 35.0607L36.8209 34.9543C36.7782 35.0198 36.7371 35.0859 36.6976 35.1526L36.8654 35.252ZM36.9843 35.0607C38.5399 32.6741 41.7358 32.0004 44.1225 33.556L44.229 33.3926C41.7521 31.7782 38.4354 32.4774 36.8209 34.9543L36.9843 35.0607ZM44.1225 33.556C46.5091 35.1116 47.1828 38.3075 45.6272 40.6941L45.7906 40.8006C47.405 38.3237 46.7059 35.007 44.229 33.3926L44.1225 33.556ZM45.6272 40.6941C44.5411 42.3606 42.6552 43.192 40.8031 43.0123L40.7843 43.2064C42.7058 43.3929 44.6632 42.5303 45.7906 40.8006L45.6272 40.6941ZM40.7067 43.1535L40.7084 43.1568L40.8823 43.0685L40.8807 43.0653L40.7067 43.1535ZM40.7954 43.1127C40.7865 43.0155 40.7865 43.0155 40.7864 43.0156C40.7863 43.0156 40.7862 43.0156 40.786 43.0156C40.7856 43.0156 40.7851 43.0157 40.7843 43.0157C40.7829 43.0159 40.7806 43.0161 40.7777 43.0163C40.7718 43.0169 40.763 43.0177 40.7514 43.0187C40.7283 43.0208 40.6939 43.0238 40.6493 43.0277C40.5599 43.0355 40.4293 43.0467 40.2643 43.0604C39.9343 43.0879 39.4666 43.1254 38.9162 43.1653C37.8151 43.2452 36.3839 43.335 35.0614 43.375C33.7354 43.415 32.5294 43.4044 31.8725 43.2866C31.7084 43.2572 31.5859 43.2222 31.5062 43.1834C31.4207 43.1418 31.4159 43.1123 31.4158 43.1085C31.4153 43.0983 31.4246 43.0556 31.5216 42.9784C31.6127 42.906 31.7594 42.8205 31.9733 42.7218L31.8916 42.5447C31.6724 42.6459 31.5093 42.739 31.4002 42.8258C31.2971 42.9078 31.2159 43.0049 31.2209 43.1172C31.2262 43.2358 31.3228 43.3111 31.4209 43.3588C31.5247 43.4093 31.668 43.4481 31.8381 43.4786C32.5182 43.6005 33.7444 43.6098 35.0673 43.5699C36.3938 43.5299 37.828 43.4398 38.9303 43.3598C39.4815 43.3198 39.9499 43.2823 40.2805 43.2548C40.4458 43.241 40.5767 43.2298 40.6662 43.222C40.711 43.2181 40.7455 43.215 40.7688 43.2129C40.7804 43.2119 40.7892 43.2111 40.7952 43.2106C40.7981 43.2103 40.8004 43.2101 40.8019 43.21C40.8026 43.2099 40.8032 43.2098 40.8036 43.2098C40.8038 43.2098 40.8039 43.2098 40.804 43.2098C40.8041 43.2098 40.8042 43.2098 40.7954 43.1127ZM31.9733 42.7218C33.1133 42.1959 33.8328 41.5253 34.3478 40.7578C34.8606 39.9935 35.1686 39.1353 35.4892 38.2436L35.3057 38.1776C34.9836 39.0734 34.6829 39.9082 34.1858 40.6491C33.6909 41.3868 32.9992 42.0338 31.8916 42.5447L31.9733 42.7218ZM35.4892 38.2436C35.8377 37.2743 36.2027 36.2604 36.8608 35.2507L36.6974 35.1442C36.0252 36.1755 35.6537 37.2098 35.3057 38.1776L35.4892 38.2436ZM36.6921 35.2416L36.6946 35.2464L36.8685 35.1582L36.866 35.1533L36.6921 35.2416Z" fill="white" mask="url(#path-10-inside-5_6531_501)"/>
<mask id="path-12-inside-6_6531_501" fill="white">
<path fill-rule="evenodd" clip-rule="evenodd" d="M40.1174 37.3448C40.1459 37.296 40.1756 37.2475 40.2064 37.1995C41.3704 35.387 43.7834 34.8614 45.5959 36.0254C47.4084 37.1894 47.934 39.6024 46.77 41.4149C45.9572 42.6805 44.5353 43.3187 43.1342 43.1922L43.1353 43.1943L33.4174 43.5297C33.4174 43.5297 37.0299 41.6489 38.3357 40.1119C39.1005 39.2116 39.5799 38.4153 39.8459 37.91C39.9172 37.7246 40.0036 37.5425 40.1055 37.3655C40.1121 37.3492 40.1153 37.3408 40.1153 37.3408L40.1174 37.3448Z"/>
</mask>
<path fill-rule="evenodd" clip-rule="evenodd" d="M40.1174 37.3448C40.1459 37.296 40.1756 37.2475 40.2064 37.1995C41.3704 35.387 43.7834 34.8614 45.5959 36.0254C47.4084 37.1894 47.934 39.6024 46.77 41.4149C45.9572 42.6805 44.5353 43.3187 43.1342 43.1922L43.1353 43.1943L33.4174 43.5297C33.4174 43.5297 37.0299 41.6489 38.3357 40.1119C39.1005 39.2116 39.5799 38.4153 39.8459 37.91C39.9172 37.7246 40.0036 37.5425 40.1055 37.3655C40.1121 37.3492 40.1153 37.3408 40.1153 37.3408L40.1174 37.3448Z" fill="url(#paint3_linear_6531_501)" fill-opacity="0.5"/>
<path d="M40.1174 37.3448L40.0308 37.3895L40.1122 37.5474L40.2017 37.394L40.1174 37.3448ZM43.1342 43.1922L43.143 43.0951L42.9662 43.0792L43.0476 43.2369L43.1342 43.1922ZM43.1353 43.1943L43.1387 43.2918L43.2926 43.2865L43.222 43.1496L43.1353 43.1943ZM33.4174 43.5297L33.3723 43.4432L33.4207 43.6271L33.4174 43.5297ZM38.3357 40.1119L38.41 40.175L38.3357 40.1119ZM39.8459 37.91L39.9328 37.9557L39.9369 37.945L39.8459 37.91ZM40.1055 37.3655L40.1908 37.4145L40.1957 37.4024L40.1055 37.3655ZM40.1153 37.3408L40.202 37.2961L40.1023 37.1028L40.0243 37.3058L40.1153 37.3408ZM40.2017 37.394C40.2294 37.3463 40.2584 37.2991 40.2884 37.2522L40.1244 37.1468C40.0928 37.196 40.0624 37.2457 40.0332 37.2957L40.2017 37.394ZM40.2884 37.2522C41.4234 35.485 43.776 34.9725 45.5432 36.1074L45.6486 35.9433C43.7908 34.7502 41.3175 35.289 40.1244 37.1468L40.2884 37.2522ZM45.5432 36.1074C47.3104 37.2424 47.8229 39.595 46.688 41.3622L46.8521 41.4676C48.0452 39.6098 47.5064 37.1365 45.6486 35.9433L45.5432 36.1074ZM46.688 41.3622C45.8955 42.5961 44.5094 43.2185 43.143 43.0951L43.1255 43.2893C44.5613 43.419 46.0188 42.765 46.8521 41.4676L46.688 41.3622ZM43.0476 43.2369L43.0487 43.239L43.222 43.1496L43.2209 43.1475L43.0476 43.2369ZM43.132 43.0969L33.414 43.4322L33.4207 43.6271L43.1387 43.2918L43.132 43.0969ZM33.4174 43.5297C33.4624 43.6162 33.4624 43.6162 33.4624 43.6161C33.4625 43.6161 33.4625 43.6161 33.4626 43.6161C33.4627 43.616 33.4629 43.6159 33.4631 43.6158C33.4636 43.6156 33.4642 43.6152 33.4651 43.6147C33.4669 43.6138 33.4696 43.6124 33.473 43.6106C33.48 43.6069 33.4903 43.6015 33.5038 43.5944C33.5308 43.5802 33.5704 43.5591 33.6213 43.5318C33.723 43.4771 33.8697 43.3974 34.0497 43.2969C34.4097 43.0961 34.9035 42.8122 35.4383 42.48C36.5042 41.818 37.7461 40.9565 38.41 40.175L38.2614 40.0487C37.6195 40.8043 36.4022 41.6517 35.3354 42.3143C34.8038 42.6445 34.3128 42.9268 33.9547 43.1266C33.7757 43.2265 33.6299 43.3058 33.529 43.36C33.4785 43.3871 33.4393 43.4079 33.4127 43.422C33.3994 43.429 33.3893 43.4343 33.3825 43.4379C33.3791 43.4397 33.3765 43.441 33.3748 43.4419C33.374 43.4423 33.3733 43.4427 33.3729 43.4429C33.3727 43.443 33.3726 43.4431 33.3725 43.4431C33.3724 43.4432 33.3724 43.4432 33.3724 43.4432C33.3723 43.4432 33.3723 43.4432 33.4174 43.5297ZM38.41 40.175C39.1801 39.2685 39.6634 38.466 39.9322 37.9554L39.7596 37.8646C39.4964 38.3646 39.0209 39.1548 38.2614 40.0487L38.41 40.175ZM39.9369 37.945C40.0064 37.7643 40.0907 37.5868 40.19 37.4141L40.0209 37.3169C39.9166 37.4983 39.828 37.6849 39.7549 37.875L39.9369 37.945ZM40.1957 37.4024C40.1992 37.3939 40.2018 37.3874 40.2036 37.3829C40.2044 37.3807 40.2051 37.379 40.2056 37.3778C40.2058 37.3772 40.206 37.3767 40.2061 37.3764C40.2062 37.3762 40.2062 37.3761 40.2063 37.376C40.2063 37.3759 40.2063 37.3759 40.2063 37.3758C40.2063 37.3758 40.2063 37.3758 40.2064 37.3758C40.2064 37.3758 40.2064 37.3758 40.2064 37.3758C40.2064 37.3758 40.2064 37.3758 40.2064 37.3758C40.2064 37.3758 40.2064 37.3758 40.2064 37.3758C40.2064 37.3758 40.2064 37.3758 40.1153 37.3408C40.0243 37.3058 40.0243 37.3058 40.0243 37.3058C40.0243 37.3058 40.0243 37.3058 40.0243 37.3058C40.0243 37.3058 40.0243 37.3058 40.0243 37.3058C40.0243 37.3058 40.0243 37.3058 40.0243 37.3058C40.0243 37.3058 40.0243 37.3058 40.0243 37.3058C40.0243 37.3058 40.0243 37.3058 40.0243 37.3058C40.0243 37.3059 40.0243 37.3059 40.0243 37.306C40.0242 37.3062 40.0241 37.3065 40.0239 37.3069C40.0235 37.3078 40.023 37.3092 40.0222 37.3111C40.0207 37.3149 40.0184 37.3208 40.0152 37.3286L40.1957 37.4024ZM40.0287 37.3855L40.0308 37.3895L40.2041 37.3001L40.202 37.2961L40.0287 37.3855Z" fill="url(#paint4_linear_6531_501)" mask="url(#path-12-inside-6_6531_501)"/>
<path d="M52.479 49.383C52.0987 49.383 51.6445 49.3619 51.1163 49.3196C50.5882 49.2774 50.0494 49.2034 49.5001 49.0978V45.2316C49.9227 45.3161 50.3241 45.3795 50.7044 45.4218C51.0847 45.464 51.391 45.4851 51.6234 45.4851C52.5952 45.4851 53.2818 45.2105 53.6832 44.6612C54.0847 44.1119 54.2854 43.2246 54.2854 41.9992V21.1154H59.229V41.9992C59.229 43.6471 58.9966 45.0204 58.5318 46.1189C58.0882 47.2175 57.3699 48.0309 56.3769 48.5591C55.4051 49.1084 54.1058 49.383 52.479 49.383ZM69.6506 43.8056C66.8619 43.8056 64.6858 43.0556 63.1225 41.5556C61.5591 40.0556 60.7774 38.0168 60.7774 35.4394C60.7774 33.7704 61.1048 32.3126 61.7598 31.0661C62.4358 29.8196 63.3654 28.8478 64.5485 28.1506C65.7527 27.4323 67.1577 27.0732 68.7633 27.0732C70.3478 27.0732 71.6682 27.4112 72.7246 28.0873C73.802 28.7633 74.6048 29.714 75.133 30.9394C75.6823 32.1436 75.957 33.5485 75.957 35.1542V36.2633H64.707V33.8865H72.471L71.9323 34.3302C71.9323 32.9992 71.6577 31.9957 71.1084 31.3196C70.5802 30.6225 69.8091 30.2739 68.795 30.2739C67.6753 30.2739 66.8091 30.6858 66.1964 31.5098C65.6048 32.3337 65.3091 33.5168 65.3091 35.0591V35.5661C65.3091 37.1295 65.6894 38.2915 66.4499 39.052C67.2316 39.8126 68.3513 40.1929 69.8091 40.1929C70.6753 40.1929 71.4886 40.0873 72.2492 39.876C73.0309 39.6436 73.7703 39.2844 74.4675 38.7985L75.7985 41.9675C74.9957 42.5591 74.0661 43.0133 73.0098 43.3302C71.9746 43.6471 70.8548 43.8056 69.6506 43.8056ZM83.3346 43.8056C81.9402 43.8056 80.7149 43.4675 79.6585 42.7915C78.6022 42.1154 77.7782 41.1542 77.1867 39.9077C76.5951 38.6612 76.2994 37.1612 76.2994 35.4077C76.2994 33.6753 76.5951 32.1858 77.1867 30.9394C77.7782 29.6929 78.6022 28.7422 79.6585 28.0873C80.7149 27.4112 81.9402 27.0732 83.3346 27.0732C84.6233 27.0732 85.7747 27.3901 86.7888 28.0239C87.824 28.6365 88.5001 29.4711 88.817 30.5274H88.4684L88.8487 27.3901H93.4437C93.3803 28.0873 93.317 28.795 93.2536 29.5133C93.2113 30.2105 93.1902 30.8971 93.1902 31.5732V43.457H88.4367L88.405 40.4464H88.7853C88.4472 41.4605 87.7712 42.2739 86.7571 42.8865C85.743 43.4992 84.6022 43.8056 83.3346 43.8056ZM84.7923 40.1929C85.8909 40.1929 86.7782 39.802 87.4543 39.0204C88.1303 38.2387 88.4684 37.0344 88.4684 35.4077C88.4684 33.7809 88.1303 32.5873 87.4543 31.8267C86.7782 31.0661 85.8909 30.6858 84.7923 30.6858C83.6937 30.6858 82.8064 31.0661 82.1303 31.8267C81.4543 32.5873 81.1163 33.7809 81.1163 35.4077C81.1163 37.0344 81.4437 38.2387 82.0987 39.0204C82.7747 39.802 83.6726 40.1929 84.7923 40.1929ZM95.2132 43.457V31.5732C95.2132 30.8971 95.192 30.2105 95.1498 29.5133C95.1075 28.795 95.0442 28.0873 94.9597 27.3901H99.5547L99.9033 30.3689H99.523C100.051 29.3126 100.801 28.4992 101.773 27.9288C102.745 27.3584 103.875 27.0732 105.164 27.0732C107.044 27.0732 108.449 27.6225 109.379 28.7211C110.329 29.7985 110.805 31.4781 110.805 33.7598V43.457H106.02V33.9816C106.02 32.8196 105.808 31.9957 105.386 31.5098C104.963 31.0239 104.329 30.7809 103.484 30.7809C102.428 30.7809 101.583 31.1189 100.949 31.795C100.315 32.4499 99.9984 33.3373 99.9984 34.457V43.457H95.2132ZM112.747 43.457V27.3901H117.532V43.457H112.747ZM112.557 24.7598V20.2915H117.69V24.7598H112.557ZM127.623 43.8056C124.834 43.8056 122.658 43.0556 121.094 41.5556C119.531 40.0556 118.749 38.0168 118.749 35.4394C118.749 33.7704 119.077 32.3126 119.732 31.0661C120.408 29.8196 121.337 28.8478 122.52 28.1506C123.725 27.4323 125.13 27.0732 126.735 27.0732C128.32 27.0732 129.64 27.4112 130.696 28.0873C131.774 28.7633 132.577 29.714 133.105 30.9394C133.654 32.1436 133.929 33.5485 133.929 35.1542V36.2633H122.679V33.8865H130.443L129.904 34.3302C129.904 32.9992 129.63 31.9957 129.08 31.3196C128.552 30.6225 127.781 30.2739 126.767 30.2739C125.647 30.2739 124.781 30.6858 124.168 31.5098C123.577 32.3337 123.281 33.5168 123.281 35.0591V35.5661C123.281 37.1295 123.661 38.2915 124.422 39.052C125.204 39.8126 126.323 40.1929 127.781 40.1929C128.647 40.1929 129.461 40.0873 130.221 39.876C131.003 39.6436 131.742 39.2844 132.439 38.7985L133.77 41.9675C132.968 42.5591 132.038 43.0133 130.982 43.3302C129.946 43.6471 128.827 43.8056 127.623 43.8056Z" fill="white"/>
<defs>
<linearGradient id="paint0_linear_6531_501" x1="43.9144" y1="32.844" x2="34.6662" y2="17.8939" gradientUnits="userSpaceOnUse">
<stop stop-color="#1A4035"/>
<stop offset="1" stop-color="#76BDA8"/>
</linearGradient>
<linearGradient id="paint1_linear_6531_501" x1="28.6913" y1="27.0404" x2="20.5513" y2="42.6217" gradientUnits="userSpaceOnUse">
<stop stop-color="#1A4035"/>
<stop offset="1" stop-color="#76BDA8"/>
</linearGradient>
<linearGradient id="paint2_linear_6531_501" x1="31.2651" y1="43.1465" x2="48.8293" y2="42.4229" gradientUnits="userSpaceOnUse">
<stop stop-color="#1A4035"/>
<stop offset="1" stop-color="#76BDA8"/>
</linearGradient>
<linearGradient id="paint3_linear_6531_501" x1="33.4174" y1="43.5297" x2="49.2438" y2="42.0508" gradientUnits="userSpaceOnUse">
<stop stop-color="#7CA9D8"/>
<stop offset="1" stop-color="#6EB29E"/>
</linearGradient>
<linearGradient id="paint4_linear_6531_501" x1="33.4174" y1="43.5297" x2="49.2438" y2="42.0508" gradientUnits="userSpaceOnUse">
<stop stop-color="#7CA9D8"/>
<stop offset="1" stop-color="#6EB29E"/>
</linearGradient>
</defs>
</svg>
