<svg width="27" height="27" viewBox="0 0 27 27" fill="none" xmlns="http://www.w3.org/2000/svg">
<path fill-rule="evenodd" clip-rule="evenodd" d="M2.20557 13.2521C2.20557 7.44189 6.84898 2.20605 13.2571 2.20605C19.5219 2.20605 24.2645 7.34248 24.2645 13.219C24.2645 20.0343 18.7057 24.265 13.2351 24.265C11.4262 24.265 9.41885 23.779 7.80855 22.829C7.24604 22.4866 6.77178 22.2325 6.16515 22.4314L3.9372 23.0941C3.37469 23.2708 2.86734 22.829 3.03278 22.2325L3.77175 19.7583C3.89308 19.4158 3.87102 19.0513 3.69455 18.7641C2.74601 17.0188 2.20557 15.1078 2.20557 13.2521ZM11.8012 13.2521C11.8012 14.0364 12.4299 14.666 13.213 14.6771C13.9961 14.6771 14.6248 14.0364 14.6248 13.2631C14.6248 12.4789 13.9961 11.8492 13.213 11.8492C12.4409 11.8382 11.8012 12.4789 11.8012 13.2521ZM16.8858 13.2631C16.8858 14.0364 17.5145 14.6771 18.2976 14.6771C19.0807 14.6771 19.7094 14.0364 19.7094 13.2631C19.7094 12.4789 19.0807 11.8492 18.2976 11.8492C17.5145 11.8492 16.8858 12.4789 16.8858 13.2631ZM8.1284 14.6771C7.35634 14.6771 6.71663 14.0364 6.71663 13.2631C6.71663 12.4789 7.34531 11.8492 8.1284 11.8492C8.9115 11.8492 9.54018 12.4789 9.54018 13.2631C9.54018 14.0364 8.9115 14.666 8.1284 14.6771Z" fill="#29BAB3"/>
</svg>
