<svg width="18" height="18" viewBox="0 0 18 18" fill="none" xmlns="http://www.w3.org/2000/svg">
<path d="M2.44178 15.1394L2.44178 15.1394L2.43839 15.1404C2.33137 15.174 2.24699 15.1456 2.19831 15.1006C2.15246 15.0583 2.11814 14.983 2.14859 14.8709L2.62331 13.2815C2.71836 13.0084 2.70583 12.703 2.55379 12.4513C1.9589 11.355 1.62362 10.1612 1.62362 9.0095C1.62362 5.37945 4.5247 2.11208 8.52459 2.11208C12.4345 2.11208 15.3971 5.31788 15.3971 8.98813C15.3971 13.2412 11.9315 15.8855 8.51035 15.8855C7.38042 15.8855 6.12692 15.5811 5.12718 14.9917C4.771 14.7749 4.37877 14.5495 3.87706 14.7124L2.44178 15.1394Z" stroke="#29BAB3" stroke-width="0.466351"/>
<path d="M5.09827 8.817C5.09827 9.31617 5.51122 9.72977 6.00961 9.72977C6.51513 9.72258 6.92096 9.31617 6.92096 8.817C6.92096 8.31077 6.51513 7.9043 6.00961 7.9043C5.5041 7.9043 5.09827 8.31077 5.09827 8.817Z" fill="#29BAB3"/>
<path d="M7.8479 8.817C7.8479 9.31617 8.26085 9.72977 8.75925 9.72977C9.26476 9.72258 9.6706 9.31617 9.6706 8.817C9.6706 8.31077 9.26476 7.9043 8.75925 7.9043C8.25373 7.9043 7.8479 8.31077 7.8479 8.817Z" fill="#29BAB3"/>
<path d="M10.5976 8.817C10.5976 9.31617 11.0105 9.72977 11.5089 9.72977C12.0145 9.72258 12.4203 9.31617 12.4203 8.817C12.4203 8.31077 12.0145 7.9043 11.5089 7.9043C11.0034 7.9043 10.5976 8.31077 10.5976 8.817Z" fill="#29BAB3"/>
</svg>
