<svg width="36" height="36" viewBox="0 0 36 36" fill="none" xmlns="http://www.w3.org/2000/svg">
<circle cx="18" cy="18" r="15" fill="url(#paint0_linear_6456_19260)"/>
<g clip-path="url(#clip0_6456_19260)">
<path d="M24.1813 12.2871H11.818C11.615 12.2871 11.4251 12.337 11.2532 12.4192L17.9703 19.1364L19.4759 17.6895C19.4759 17.6895 19.476 17.6894 19.476 17.6893C19.476 17.6892 19.4762 17.6892 19.4762 17.6892L24.7463 12.4194C24.5744 12.3371 24.3843 12.2871 24.1813 12.2871Z" fill="white"/>
<path d="M25.3679 13.0425L20.4084 18.0017L25.3677 22.961C25.45 22.7891 25.4999 22.5991 25.4999 22.3962V13.6071C25.4999 13.4043 25.4501 13.2143 25.3679 13.0425Z" fill="white"/>
<path d="M10.6321 13.04C10.5499 13.2119 10.5 13.4019 10.5 13.6049V22.3939C10.5 22.5967 10.5498 22.7868 10.632 22.9586L15.5915 17.9994L10.6321 13.04Z" fill="white"/>
<path d="M19.787 18.6212L18.2813 20.0682C18.1954 20.1541 18.083 20.197 17.9706 20.197C17.8582 20.197 17.7457 20.1541 17.6599 20.0682L16.2127 18.6211L11.2532 23.5803C11.4251 23.6626 11.6152 23.7126 11.8182 23.7126H24.1815C24.3844 23.7126 24.5744 23.6627 24.7463 23.5804L19.787 18.6212Z" fill="white"/>
</g>
<defs>
<linearGradient id="paint0_linear_6456_19260" x1="3" y1="3" x2="33" y2="33" gradientUnits="userSpaceOnUse">
<stop stop-color="#23A6CA"/>
<stop offset="1" stop-color="#1E5057"/>
</linearGradient>
<clipPath id="clip0_6456_19260">
<rect width="15" height="15" fill="white" transform="translate(10.5 10.5)"/>
</clipPath>
</defs>
</svg>
