<svg width="47" height="47" viewBox="0 0 47 47" fill="none" xmlns="http://www.w3.org/2000/svg">
<rect x="0.878815" y="0.636353" width="46.0606" height="46.0606" rx="23.0303" fill="white" fill-opacity="0.07"/>
<rect x="0.878815" y="0.636353" width="46.0606" height="46.0606" rx="23.0303" fill="#5E5E5E" fill-opacity="0.18" style="mix-blend-mode:color-dodge"/>
<path fill-rule="evenodd" clip-rule="evenodd" d="M14 24.0149C14 18.747 18.21 13.9999 24.02 13.9999C29.7 13.9999 34 18.6569 34 23.9849C34 30.1641 28.96 33.9999 24 33.9999C22.36 33.9999 20.54 33.5592 19.08 32.6979C18.57 32.3875 18.14 32.1571 17.59 32.3374L15.57 32.9383C15.06 33.0985 14.6 32.6979 14.75 32.1571L15.42 29.9138C15.53 29.6033 15.51 29.2728 15.35 29.0124C14.49 27.43 14 25.6974 14 24.0149ZM22.7 24.0149C22.7 24.726 23.27 25.2968 23.98 25.3069C24.69 25.3069 25.26 24.726 25.26 24.0249C25.26 23.3139 24.69 22.743 23.98 22.743C23.28 22.733 22.7 23.3139 22.7 24.0149ZM27.31 24.0249C27.31 24.726 27.88 25.3069 28.59 25.3069C29.3 25.3069 29.87 24.726 29.87 24.0249C29.87 23.3139 29.3 22.743 28.59 22.743C27.88 22.743 27.31 23.3139 27.31 24.0249ZM19.37 25.3069C18.67 25.3069 18.09 24.726 18.09 24.0249C18.09 23.3139 18.66 22.743 19.37 22.743C20.08 22.743 20.65 23.3139 20.65 24.0249C20.65 24.726 20.08 25.2968 19.37 25.3069Z" fill="white"/>
</svg>
