<svg width="47" height="47" viewBox="0 0 47 47" fill="none" xmlns="http://www.w3.org/2000/svg">
<rect x="0.515015" y="0.636414" width="46.0606" height="46.0606" rx="23.0303" fill="white" fill-opacity="0.07"/>
<rect x="0.515015" y="0.636414" width="46.0606" height="46.0606" rx="23.0303" fill="#5E5E5E" fill-opacity="0.18" style="mix-blend-mode:color-dodge"/>
<path fill-rule="evenodd" clip-rule="evenodd" d="M24.1752 27.2173H23.8254C21.422 27.2173 19.4739 25.2926 19.4739 22.9202V18.297C19.4739 15.9237 21.422 13.9999 23.8254 13.9999H24.1752C26.5785 13.9999 28.5276 15.9237 28.5276 18.297V22.9202C28.5276 25.2926 26.5785 27.2173 24.1752 27.2173ZM30.563 22.7828C30.563 22.2538 30.997 21.8262 31.5317 21.8262C32.0664 21.8262 32.5004 22.2538 32.5004 22.7828C32.5004 27.0865 29.201 30.6403 24.9696 31.1177V33.0433C24.9696 33.5713 24.5356 33.9999 24.0009 33.9999C23.4652 33.9999 23.0322 33.5713 23.0322 33.0433V31.1177C18.7998 30.6403 15.5004 27.0865 15.5004 22.7828C15.5004 22.2538 15.9343 21.8262 16.4691 21.8262C17.0038 21.8262 17.4378 22.2538 17.4378 22.7828C17.4378 26.3557 20.3817 29.2628 24.0009 29.2628C27.619 29.2628 30.563 26.3557 30.563 22.7828Z" fill="white"/>
</svg>
