<svg width="20" height="16" viewBox="0 0 20 16" fill="none" xmlns="http://www.w3.org/2000/svg">
<path d="M13.9998 13.4747V15.4747C13.9998 15.6073 13.9472 15.7345 13.8534 15.8283C13.7596 15.922 13.6325 15.9747 13.4998 15.9747H6.49992C6.36732 15.9747 6.24014 15.922 6.14637 15.8283C6.05261 15.7345 5.99993 15.6073 5.99993 15.4747V13.4747C5.99993 13.3421 6.05261 13.215 6.14637 13.1212C6.24014 13.0274 6.36732 12.9748 6.49992 12.9748H13.4998C13.6325 12.9748 13.7596 13.0274 13.8534 13.1212C13.9472 13.215 13.9998 13.3421 13.9998 13.4747ZM13.5298 7.59482L9.82989 7.97481H9.72989C9.49664 8.00798 9.27035 8.0789 9.0599 8.18481C8.82707 8.30784 8.62083 8.47564 8.45302 8.67858C8.28521 8.88152 8.15913 9.1156 8.08201 9.36739C8.00489 9.61919 7.97826 9.88373 8.00364 10.1458C8.02902 10.4079 8.10591 10.6625 8.2299 10.8948C8.39806 11.2194 8.65196 11.4917 8.96401 11.6821C9.27606 11.8725 9.63433 11.9737 9.99988 11.9748C10.3307 11.9778 10.6571 11.8988 10.9499 11.7448C11.157 11.6265 11.3429 11.4744 11.4999 11.2948C11.5317 11.2698 11.5588 11.2393 11.5799 11.2048L13.9998 8.42481C14.0649 8.34829 14.1055 8.25395 14.1162 8.15406C14.1269 8.05417 14.1072 7.95338 14.0598 7.86481C14.0133 7.76791 13.9363 7.68899 13.8405 7.6402C13.7447 7.59141 13.6356 7.57546 13.5298 7.59482ZM0.449995 7.12482L4.44995 7.78481C4.68668 7.17269 5.02473 6.60477 5.44994 6.10483L2.59997 3.28487C1.60512 4.38793 0.870421 5.70014 0.449995 7.12482ZM7.92991 4.35485L6.66992 0.564897C5.42724 1.00609 4.28255 1.68543 3.29996 2.56487L6.12993 5.40484C6.66843 4.95871 7.2765 4.604 7.92991 4.35485ZM13.8698 5.35484L16.6998 2.57487C15.7172 1.69543 14.5725 1.01608 13.3298 0.574897L12.0699 4.35485C12.7233 4.604 13.3313 4.95871 13.8698 5.40484V5.35484ZM17.3998 3.28487L14.5698 6.10483C14.995 6.60477 15.3331 7.17269 15.5698 7.78481L19.5698 7.12482C19.1388 5.70034 18.3977 4.38896 17.3998 3.28487ZM19.7998 8.09481L15.8598 8.7548C15.9453 9.15607 15.9922 9.56459 15.9998 9.97479C15.9993 10.5334 15.9185 11.0891 15.7598 11.6248C15.7418 11.6936 15.7378 11.7654 15.7481 11.8359C15.7584 11.9063 15.7828 11.974 15.8198 12.0348C15.8575 12.0935 15.9074 12.1436 15.966 12.1815C16.0247 12.2195 16.0907 12.2444 16.1598 12.2548L19.1598 12.7548H19.2398C19.3519 12.7541 19.4606 12.7165 19.5492 12.6478C19.6377 12.5791 19.7012 12.4831 19.7298 12.3748C19.9146 11.5883 20.0052 10.7827 19.9998 9.97479C19.991 9.34332 19.924 8.71399 19.7998 8.09481ZM3.99995 9.97479C4.00759 9.56459 4.05447 9.15607 4.13995 8.7548L0.199998 8.09481C0.0757262 8.71399 0.00877715 9.34332 0 9.97479C0.0035702 10.7872 0.104284 11.5963 0.299996 12.3848C0.328564 12.4931 0.39204 12.5891 0.48061 12.6578C0.56918 12.7265 0.67791 12.7641 0.789991 12.7648H0.86999L3.86995 12.2648C3.93903 12.2544 4.0051 12.2295 4.06374 12.1915C4.12238 12.1536 4.17223 12.1035 4.20995 12.0448C4.24698 11.984 4.27137 11.9163 4.28168 11.8459C4.29199 11.7754 4.288 11.7036 4.26995 11.6348C4.10019 11.0974 4.00925 10.5383 3.99995 9.97479ZM11.0999 4.09486L12.3699 0.2849C10.8127 -0.0949667 9.18706 -0.0949667 7.62991 0.2849L8.8999 4.09486C9.62653 3.95475 10.3732 3.95475 11.0999 4.09486Z" fill="#A2A3A3"/>
</svg>
