<svg width="19" height="19" viewBox="0 0 19 19" fill="none" xmlns="http://www.w3.org/2000/svg">
<circle cx="9.5" cy="9.5" r="9.10417" stroke="#707D8B" stroke-width="0.791667"/>
<path fill-rule="evenodd" clip-rule="evenodd" d="M9.50009 5.27783C9.26691 5.27783 9.07787 5.46687 9.07787 5.70005V9.07786H5.70005C5.46687 9.07786 5.27783 9.26689 5.27783 9.50008C5.27783 9.73327 5.46687 9.9223 5.70005 9.9223H9.07787V13.3001C9.07787 13.5332 9.26691 13.7223 9.50009 13.7223C9.73328 13.7223 9.92232 13.5332 9.92232 13.3001V9.9223H13.3001C13.5332 9.9223 13.7223 9.73327 13.7223 9.50008C13.7223 9.26689 13.5332 9.07786 13.3001 9.07786H9.92232V5.70005C9.92232 5.46687 9.73328 5.27783 9.50009 5.27783Z" fill="#707D8B"/>
</svg>
