<svg width="48" height="47" viewBox="0 0 48 47" fill="none" xmlns="http://www.w3.org/2000/svg">
<rect x="0.969482" y="0.636475" width="46.0606" height="46.0606" rx="23.0303" fill="white" fill-opacity="0.07"/>
<rect x="0.969482" y="0.636475" width="46.0606" height="46.0606" rx="23.0303" fill="#5E5E5E" fill-opacity="0.18" style="mix-blend-mode:color-dodge"/>
<path fill-rule="evenodd" clip-rule="evenodd" d="M18.1128 16.5H23.9049C26.3269 16.5 28.0179 18.169 28.0179 20.5609V27.4391C28.0179 29.831 26.3269 31.5 23.9049 31.5H18.1128C15.6908 31.5 13.9998 29.831 13.9998 27.4391V20.5609C13.9998 18.169 15.6908 16.5 18.1128 16.5ZM31.9578 18.879C32.3968 18.6556 32.9118 18.679 33.3308 18.9429C33.7498 19.2059 33.9998 19.6627 33.9998 20.1622V27.8384C33.9998 28.3389 33.7498 28.7947 33.3308 29.0577C33.1018 29.2008 32.8458 29.2739 32.5878 29.2739C32.3728 29.2739 32.1578 29.2231 31.9568 29.1206L30.4758 28.3734C29.9278 28.0952 29.5878 27.5369 29.5878 26.9165V21.083C29.5878 20.4617 29.9278 19.9034 30.4758 19.6272L31.9578 18.879Z" fill="white"/>
</svg>
