<svg width="20" height="21" viewBox="0 0 20 21" fill="none" xmlns="http://www.w3.org/2000/svg">
<path d="M7.94883 1.20663C4.00003 1.20663 0.798828 4.40783 0.798828 8.35663C0.798828 12.3054 4.00003 15.5066 7.94883 15.5066C11.8976 15.5066 15.0988 12.3054 15.0988 8.35663C15.0988 4.40783 11.8976 1.20663 7.94883 1.20663ZM7.94883 14.0222C4.81963 14.0222 2.28323 11.4858 2.28323 8.35663C2.28323 5.22743 4.81963 2.69103 7.94883 2.69103C11.078 2.69103 13.6144 5.22743 13.6144 8.35663C13.6144 11.4858 11.078 14.0222 7.94883 14.0222Z" fill="white"/>
<path d="M12.7712 15.2214L15.4428 17.893C16.0044 18.455 16.9168 18.455 17.4788 17.893C18.0408 17.331 18.0408 16.4186 17.4788 15.857L14.8072 13.1854L12.7712 15.2214Z" fill="white"/>
</svg>
