<svg width="16" height="17" viewBox="0 0 16 17" fill="none" xmlns="http://www.w3.org/2000/svg">
<path d="M6.50126 11.2905L6.50123 11.2896C6.49398 11.0925 6.52611 10.8959 6.59574 10.7113C6.66537 10.5267 6.77109 10.3579 6.90674 10.2147C7.04239 10.0714 7.20523 9.9567 7.38575 9.87715C7.56626 9.79759 7.76082 9.75483 7.95806 9.75135L7.96687 9.7512V9.75127H7.98487H7.98583C8.37811 9.75203 8.75486 9.90461 9.03711 10.177L8.68987 10.5368L9.03711 10.177C9.31935 10.4495 9.48518 10.8206 9.49983 11.2125L6.50126 11.2905ZM6.50126 11.2905C6.51639 11.6822 6.68229 12.0529 6.96432 12.3251C7.24634 12.5973 7.62265 12.75 8.01461 12.7512H8.0162H8.0342V12.7513L8.04267 12.7512C8.23999 12.7478 8.43466 12.7051 8.61528 12.6256C8.7959 12.5461 8.95883 12.4313 9.09454 12.288C9.23025 12.1447 9.33599 11.9758 9.40558 11.7911L8.9377 11.6148M6.50126 11.2905L8.9377 11.6148M8.9377 11.6148L9.40558 11.7911C9.47517 11.6065 9.50721 11.4098 9.49983 11.2126L8.9377 11.6148ZM7.99772 0.743424L8.0002 0.743371C8.97903 0.722483 9.95215 0.897524 10.8623 1.2582C11.7725 1.61888 12.6014 2.15791 13.3002 2.8436C13.9991 3.52929 14.5537 4.34779 14.9316 5.25097C15.3095 6.15414 15.503 7.12377 15.5007 8.10281H15.5007L15.5007 8.10806C15.5171 10.1139 14.737 12.0443 13.3318 13.4757C11.9271 14.9064 10.0125 15.7218 8.00761 15.7431L7.86754 15.7431L7.86665 15.7431C6.89927 15.7449 5.94105 15.5557 5.04692 15.1864C4.15279 14.8171 3.34032 14.275 2.65607 13.5912C1.97183 12.9074 1.42926 12.0952 1.05945 11.2013C0.68965 10.3074 0.499887 9.34929 0.501039 8.38191H0.501115L0.500973 8.37319C0.48488 7.38305 0.668586 6.39983 1.04111 5.48231C1.41363 4.56478 1.96733 3.73178 2.6691 3.0331L2.66912 3.03312L2.67311 3.02906C4.07882 1.5973 5.99151 0.776262 7.99772 0.743424ZM8.82582 3.75178L8.48367 4.09393L8.82582 3.75178C8.60703 3.53299 8.31029 3.41007 8.00087 3.41007C7.69145 3.41007 7.39471 3.53299 7.17592 3.75178C6.95713 3.97057 6.83422 4.26731 6.83422 4.57673V8.57664C6.83422 8.88606 6.95713 9.1828 7.17592 9.40159C7.39471 9.62038 7.69145 9.74329 8.00087 9.74329C8.31029 9.74329 8.60703 9.62038 8.82582 9.40159C9.04461 9.1828 9.16752 8.88606 9.16752 8.57664V4.57673C9.16752 4.26731 9.04461 3.97057 8.82582 3.75178Z" fill="#FFF" stroke="#FFF"/>
</svg>
